<svg xmlns="http://www.w3.org/2000/svg" viewBox="0 0 500 500"><g id="freepik--Floor--inject-63"><path id="freepik--floor--inject-63" d="M86.59,260.6c-90.24,52.1-90.24,136.57,0,188.68s236.56,52.1,326.81,0,90.24-136.58,0-188.68S176.84,208.49,86.59,260.6Z" style="fill:#fafafa"></path></g><g id="freepik--Shadows--inject-63"><ellipse id="freepik--Shadow--inject-63" cx="234.13" cy="413.81" rx="52.25" ry="30.16" style="fill:#e0e0e0"></ellipse><ellipse id="freepik--shadow--inject-63" cx="420.25" cy="408.06" rx="52.25" ry="30.16" style="fill:#e0e0e0"></ellipse><path id="freepik--shadow--inject-63" d="M97.57,419.06c9.78,5.71,9.78,15,0,20.68s-25.64,5.71-35.42,0-9.78-15,0-20.68S87.79,413.35,97.57,419.06Z" style="fill:#e0e0e0"></path></g><g id="freepik--Icon--inject-63"><g id="freepik--character-icon--inject-63"><path d="M51.17,134.69,98.4,107.42l-.77-6.8c-.49-4.31-2.21-7.31-4.68-8.74l-6.57-3.79c-2.45-1.41-5.65-1.26-9.11.74L59.16,99.28c-6.94,4-12.81,14.21-13.79,23.92l-.77,7.7Z" style="fill:#FF725E"></path><path d="M51.17,134.69,98.4,107.42l-.77-6.8c-.49-4.31-2.21-7.31-4.68-8.74l-6.57-3.79c-2.45-1.41-5.65-1.26-9.11.74L59.16,99.28c-6.94,4-12.81,14.21-13.79,23.92l-.77,7.7Z" style="fill:#fff;opacity:0.2"></path><path d="M97.63,100.62c-.49-4.31-2.21-7.31-4.68-8.74s-5.65-1.26-9.11.74L65.73,103.07c-6.94,4-12.82,14.21-13.79,23.93l-.77,7.69L98.4,107.42Z" style="fill:#FF725E"></path><g style="opacity:0.5"><path d="M97.63,100.62c-.49-4.31-2.21-7.31-4.68-8.74s-5.65-1.26-9.11.74L65.73,103.07c-6.94,4-12.82,14.21-13.79,23.93l-.77,7.69L98.4,107.42Z" style="fill:#fff"></path></g><path d="M85,62.94c2.32,1.35,3.76,4.23,3.76,8.33,0,8.19-5.75,18.16-12.85,22.26-3.55,2-6.76,2.24-9.09.9L60.38,90.7c-2.33-1.34-3.77-4.22-3.77-8.32,0-8.2,5.76-18.16,12.86-22.26,3.54-2,6.76-2.24,9.08-.9Z" style="fill:#FF725E"></path><path d="M85,62.94c2.32,1.35,3.76,4.23,3.76,8.33,0,8.19-5.75,18.16-12.85,22.26-3.55,2-6.76,2.24-9.09.9L60.38,90.7c-2.33-1.34-3.77-4.22-3.77-8.32,0-8.2,5.76-18.16,12.86-22.26,3.54-2,6.76-2.24,9.08-.9Z" style="fill:#fff;opacity:0.2"></path><path d="M75.92,93.53c-3.55,2-6.76,2.24-9.09.9s-3.76-4.23-3.76-8.32c0-8.2,5.75-18.17,12.85-22.27,3.55-2,6.76-2.24,9.09-.9s3.76,4.23,3.76,8.33C88.77,79.46,83,89.43,75.92,93.53Z" style="fill:#FF725E"></path><path d="M75.92,93.53c-3.55,2-6.76,2.24-9.09.9s-3.76-4.23-3.76-8.32c0-8.2,5.75-18.17,12.85-22.27,3.55-2,6.76-2.24,9.09-.9s3.76,4.23,3.76,8.33C88.77,79.46,83,89.43,75.92,93.53Z" style="fill:#fff;opacity:0.5"></path></g></g><g id="freepik--Gears--inject-63"><g id="freepik--gears--inject-63"><path d="M116.5,98.23a.93.93,0,0,1-.29,0l-2.93-.74a1.65,1.65,0,0,1-1.14-2.25l2.16-5.34a1.3,1.3,0,0,0-.28-1.18,8.2,8.2,0,0,1-.8-1,.5.5,0,0,0-.66-.2l-4,2.46a1.44,1.44,0,0,1-1.38.13,1.42,1.42,0,0,1-.77-1.14l-.61-4.29a3,3,0,0,1,.93-2.5l4-3.48a3,3,0,0,0,.8-1.51,24.46,24.46,0,0,1,.59-2.9.77.77,0,0,0-.38-.84l-2.26-1a1.8,1.8,0,0,1-1-1,1.84,1.84,0,0,1,.08-1.4l2.84-5.9a2.47,2.47,0,0,1,2.31-1.33l2.84.23a1.62,1.62,0,0,0,1.23-.59A34.59,34.59,0,0,1,120,59.6a2.61,2.61,0,0,0,.58-1.55l-.13-4.21a3.11,3.11,0,0,1,1.16-2.4l4.52-3.34a1.48,1.48,0,0,1,1.36-.25,1.45,1.45,0,0,1,.9,1l.9,3.34a.35.35,0,0,0,.17.22.4.4,0,0,0,.34,0,16.46,16.46,0,0,1,1.91-.57A2.22,2.22,0,0,0,133,51L136,45.8a2.27,2.27,0,0,1,2.43-1l2.93.75a1.65,1.65,0,0,1,1.14,2.25l-2.16,5.33a1.29,1.29,0,0,0,.29,1.19,8.24,8.24,0,0,1,.79,1,.48.48,0,0,0,.66.2l4-2.46a1.37,1.37,0,0,1,2.16,1l.6,4.28a3,3,0,0,1-.93,2.5l-4,3.48a2.94,2.94,0,0,0-.79,1.51,28.87,28.87,0,0,1-.59,2.91.76.76,0,0,0,.37.84l2.27,1a1.8,1.8,0,0,1,.94,1,1.77,1.77,0,0,1-.08,1.39L143.11,79a2.47,2.47,0,0,1-2.31,1.33L138,80.06a1.61,1.61,0,0,0-1.24.58,34.59,34.59,0,0,1-2.17,2.7,2.61,2.61,0,0,0-.58,1.55l.14,4.21A3.15,3.15,0,0,1,133,91.51l-4.51,3.33a1.46,1.46,0,0,1-1.36.26,1.5,1.5,0,0,1-.91-1l-.9-3.33a.32.32,0,0,0-.17-.23.38.38,0,0,0-.33,0,14.84,14.84,0,0,1-1.92.57,2.3,2.3,0,0,0-1.28.89l-2.93,5.19A2.28,2.28,0,0,1,116.5,98.23ZM113,86.05a1.87,1.87,0,0,1,1.37.86,8.49,8.49,0,0,0,.67.88,2.62,2.62,0,0,1,.53,2.56l-2.16,5.33a.39.39,0,0,0,0,.3.31.31,0,0,0,.24.17l2.93.75a.93.93,0,0,0,.95-.41l2.93-5.19a3.51,3.51,0,0,1,2.14-1.53,13.8,13.8,0,0,0,1.75-.52,1.71,1.71,0,0,1,1.4.06,1.66,1.66,0,0,1,.84,1.07l.9,3.33a.27.27,0,0,0,.07.14.37.37,0,0,0,.13-.07l4.52-3.34a1.79,1.79,0,0,0,.62-1.29l-.14-4.21a4,4,0,0,1,.92-2.47c.72-.82,1.43-1.69,2.09-2.61a3,3,0,0,1,2.41-1.13l2.83.23a1.18,1.18,0,0,0,1-.58l2.84-5.9a.44.44,0,0,0,0-.37.49.49,0,0,0-.25-.28l-2.26-1a2.1,2.1,0,0,1-1.11-2.37,23.93,23.93,0,0,0,.57-2.77A4.24,4.24,0,0,1,143,63.33l4-3.48a1.69,1.69,0,0,0,.49-1.31h0l-.6-4.29a.25.25,0,0,0,0-.12.27.27,0,0,0-.11,0l-4,2.46a1.8,1.8,0,0,1-2.46-.6,6.58,6.58,0,0,0-.67-.88,2.61,2.61,0,0,1-.52-2.57l2.15-5.33a.36.36,0,0,0,0-.29.33.33,0,0,0-.24-.18L138.07,46a1,1,0,0,0-1,.41l-2.92,5.2A3.6,3.6,0,0,1,132,53.18a11.84,11.84,0,0,0-1.74.52,1.77,1.77,0,0,1-1.41-.07,1.67,1.67,0,0,1-.84-1.06l-.9-3.34c0-.09-.05-.13-.06-.13a.35.35,0,0,0-.14.06l-4.51,3.34a1.82,1.82,0,0,0-.63,1.3L122,58a4,4,0,0,1-.92,2.47c-.72.81-1.42,1.69-2.09,2.6a2.92,2.92,0,0,1-2.41,1.13L113.7,64a1.15,1.15,0,0,0-1,.57l-2.85,5.91a.48.48,0,0,0,0,.37.44.44,0,0,0,.25.27l2.26,1a2.09,2.09,0,0,1,1.11,2.37,22.29,22.29,0,0,0-.56,2.77,4.22,4.22,0,0,1-1.24,2.31l-4,3.48a1.74,1.74,0,0,0-.49,1.32l.61,4.28a.49.49,0,0,0,0,.13l.11-.06,4-2.45A1.79,1.79,0,0,1,113,86.05Zm9.65-2.69a5.21,5.21,0,0,1-1.53-.38,5.81,5.81,0,0,1-3.3-4.86c-.75-5.26,2.77-12.58,7.83-16.33,2.82-2.08,5.71-2.75,7.91-1.82a5.79,5.79,0,0,1,3.3,4.86c.75,5.25-2.77,12.58-7.83,16.32h0A9.6,9.6,0,0,1,122.61,83.36Zm9.24-22.46a8.33,8.33,0,0,0-5.45,2c-4.72,3.48-8,10.25-7.31,15.07a4.49,4.49,0,0,0,2.5,3.83c1.77.74,4.17.13,6.61-1.67,4.72-3.49,8-10.25,7.31-15.08a4.48,4.48,0,0,0-2.5-3.82A3.73,3.73,0,0,0,131.85,60.9Z" style="fill:#e0e0e0"></path><path d="M157.6,74.51l-.2,0L155.46,74a1.24,1.24,0,0,1-.8-.63,1.19,1.19,0,0,1,0-1l1.43-3.54a.77.77,0,0,0-.17-.68,5.62,5.62,0,0,1-.54-.7c0-.07-.17-.18-.29-.1L152.41,69a1,1,0,0,1-1,.09,1.06,1.06,0,0,1-.58-.83l-.4-2.85a2.09,2.09,0,0,1,.66-1.75l2.66-2.32a1.84,1.84,0,0,0,.5-.93,18.17,18.17,0,0,1,.39-2,.4.4,0,0,0-.19-.43l-1.51-.69a1.34,1.34,0,0,1-.68-.74,1.31,1.31,0,0,1,.06-1l1.89-3.92a1.74,1.74,0,0,1,1.63-.94l1.88.15a1,1,0,0,0,.73-.35c.46-.63.95-1.23,1.45-1.8a1.65,1.65,0,0,0,.36-1l-.09-2.79a2.2,2.2,0,0,1,.81-1.69L164,41a1,1,0,0,1,1.67.58l.6,2.21c.09.11.14.11.2.09a9.77,9.77,0,0,1,1.28-.39,1.35,1.35,0,0,0,.78-.54l1.95-3.45a1.59,1.59,0,0,1,1.73-.74l1.95.5a1.21,1.21,0,0,1,.79.62,1.19,1.19,0,0,1,0,1l-1.43,3.54a.77.77,0,0,0,.17.68,7.63,7.63,0,0,1,.54.7.21.21,0,0,0,.29.1l2.65-1.63a1,1,0,0,1,1.59.75l.4,2.85a2.1,2.1,0,0,1-.66,1.75L175.84,52a1.87,1.87,0,0,0-.5.94,18,18,0,0,1-.39,1.94.4.4,0,0,0,.19.43l1.51.7a1.3,1.3,0,0,1,.68.74,1.27,1.27,0,0,1-.06,1l-1.89,3.92a1.75,1.75,0,0,1-1.63.94l-1.88-.15a1,1,0,0,0-.73.34c-.46.63-.95,1.24-1.45,1.81a1.62,1.62,0,0,0-.36,1l.09,2.8a2.19,2.19,0,0,1-.81,1.68l-3,2.22a1.09,1.09,0,0,1-1,.18,1.06,1.06,0,0,1-.67-.76l-.6-2.22c-.1-.11-.15-.1-.2-.08a9.26,9.26,0,0,1-1.28.38,1.4,1.4,0,0,0-.78.54l-2,3.45A1.62,1.62,0,0,1,157.6,74.51Zm-2.33-8.3a1.33,1.33,0,0,1,1,.62,6.17,6.17,0,0,0,.44.57,1.84,1.84,0,0,1,.37,1.81l-1.43,3.54.08.17,1.95.5a.52.52,0,0,0,.51-.22l1.95-3.45a2.45,2.45,0,0,1,1.49-1.07,8.64,8.64,0,0,0,1.14-.34,1.25,1.25,0,0,1,1,0,1.22,1.22,0,0,1,.61.77l.6,2.21,3-2.22a1.11,1.11,0,0,0,.37-.78l-.09-2.79a2.77,2.77,0,0,1,.64-1.72c.48-.54.94-1.12,1.38-1.72a2,2,0,0,1,1.69-.79l1.88.15a.65.65,0,0,0,.57-.32l1.89-3.93a.16.16,0,0,0,0-.16.2.2,0,0,0-.11-.12l-1.5-.7a1.48,1.48,0,0,1-.79-1.69,18.55,18.55,0,0,0,.37-1.83,2.94,2.94,0,0,1,.85-1.6l2.67-2.31a1,1,0,0,0,.29-.78h0l-.4-2.85-2.59,1.66a1.29,1.29,0,0,1-1.77-.43,4.3,4.3,0,0,0-.44-.57,1.84,1.84,0,0,1-.37-1.81l1.43-3.55.05-.13-.13,0-2-.49a.48.48,0,0,0-.51.22l-2,3.45A2.43,2.43,0,0,1,168,44.58a9.34,9.34,0,0,0-1.15.35,1.26,1.26,0,0,1-1,0,1.22,1.22,0,0,1-.61-.77l-.6-2.22-3,2.23a1.09,1.09,0,0,0-.37.77l.09,2.8a2.77,2.77,0,0,1-.63,1.71,21.29,21.29,0,0,0-1.39,1.72,2,2,0,0,1-1.69.79l-1.88-.15a.7.7,0,0,0-.57.33L153.29,56a.21.21,0,0,0,0,.17.2.2,0,0,0,.11.12l1.5.69a1.51,1.51,0,0,1,.8,1.7,16,16,0,0,0-.38,1.82,2.87,2.87,0,0,1-.85,1.61l-2.67,2.31a1,1,0,0,0-.29.78l.4,2.85,2.59-1.66A1.17,1.17,0,0,1,155.27,66.21Zm6.4-1.58a3.37,3.37,0,0,1-1-.26,4,4,0,0,1-2.26-3.31c-.5-3.53,1.86-8.43,5.25-10.94,1.9-1.41,3.85-1.86,5.35-1.23a4,4,0,0,1,2.26,3.31c.5,3.53-1.85,8.44-5.24,10.94h0A6.45,6.45,0,0,1,161.67,64.63Zm6.13-14.92A5.47,5.47,0,0,0,164.25,51c-3.1,2.29-5.26,6.73-4.81,9.91a2.9,2.9,0,0,0,1.6,2.46c1.13.48,2.7.07,4.29-1.1h0c3.1-2.29,5.26-6.74,4.81-9.91a2.88,2.88,0,0,0-1.6-2.46A2.6,2.6,0,0,0,167.8,49.71Z" style="fill:#e0e0e0"></path></g></g><g id="freepik--Envelope--inject-63"><g id="freepik--envelope--inject-63"><path d="M274.8,57.89a1.79,1.79,0,0,1,.81-1.41l41.61-24a1.78,1.78,0,0,1,1.62,0l.92.53a1.79,1.79,0,0,1,.81,1.41V66.29a1.79,1.79,0,0,1-.81,1.41l-41.61,24a1.78,1.78,0,0,1-1.62,0l-.92-.53a1.79,1.79,0,0,1-.81-1.41Z" style="fill:#FF725E"></path><path d="M274.8,57.89a1.79,1.79,0,0,1,.81-1.41l41.61-24a1.78,1.78,0,0,1,1.62,0l.92.53a1.79,1.79,0,0,1,.81,1.41V66.29a1.79,1.79,0,0,1-.81,1.41l-41.61,24a1.78,1.78,0,0,1-1.62,0l-.92-.53a1.79,1.79,0,0,1-.81-1.41Z" style="fill:#fff;opacity:0.8"></path><path d="M278.61,59.15,275,57.09a1.61,1.61,0,0,0-.24.8V89.78a1.79,1.79,0,0,0,.81,1.41l.92.53a1.78,1.78,0,0,0,1.62,0l.46-.27Z" style="fill:#FF725E"></path><path d="M278.61,59.15,275,57.09a1.61,1.61,0,0,0-.24.8V89.78a1.79,1.79,0,0,0,.81,1.41l.92.53a1.78,1.78,0,0,0,1.62,0l.46-.27Z" style="fill:#fff;opacity:0.30000000000000004"></path><path d="M320.57,34.4V66.29a1.6,1.6,0,0,1-.25.82,1.68,1.68,0,0,1-.48.54h0l-.05,0-41.6,24h0a.56.56,0,0,1-.55.06.55.55,0,0,1-.26-.53V59.36a.71.71,0,0,1,.92-.72l17.49,4.16,2.29.54a1.49,1.49,0,0,0,1.46-.55l2.66-3.69L320,34.22C320.33,33.8,320.57,33.88,320.57,34.4Z" style="fill:#FF725E"></path><path d="M320.57,34.4V66.29a1.6,1.6,0,0,1-.25.82,1.68,1.68,0,0,1-.48.54h0l-.05,0-41.6,24h0a.56.56,0,0,1-.55.06.55.55,0,0,1-.26-.53V59.36a.71.71,0,0,1,.92-.72l17.49,4.16,2.29.54a1.49,1.49,0,0,0,1.46-.55l2.66-3.69L320,34.22C320.33,33.8,320.57,33.88,320.57,34.4Z" style="fill:#fff;opacity:0.5"></path><path d="M319.76,67.7l.05,0h0a1.68,1.68,0,0,0,.48-.54,1.63,1.63,0,0,0,.25-.81l-18.41-7.2,12.33,11.64Z" style="fill:#FF725E"></path><path d="M319.76,67.7l.05,0h0a1.68,1.68,0,0,0,.48-.54,1.63,1.63,0,0,0,.25-.81l-18.41-7.2,12.33,11.64Z" style="fill:#FF725E"></path><path d="M277.34,91.25a.55.55,0,0,0,.26.53.56.56,0,0,0,.55-.06h0l14.32-8.27,3.27-20.65L277.34,90.72Z" style="fill:#FF725E"></path><path d="M277.34,91.25a.55.55,0,0,0,.26.53.56.56,0,0,0,.55-.06h0l14.32-8.27,3.27-20.65L277.34,90.72Z" style="fill:#FF725E"></path><path d="M320.32,67.11a1.68,1.68,0,0,1-.48.54h0L278.16,91.72h0a.56.56,0,0,1-.55.06L297.52,60a3.12,3.12,0,0,1,3.91-1.2Z" style="fill:#FF725E"></path><path d="M320.32,67.11a1.68,1.68,0,0,1-.48.54h0L278.16,91.72h0a.56.56,0,0,1-.55.06L297.52,60a3.12,3.12,0,0,1,3.91-1.2Z" style="fill:#fff;opacity:0.5"></path><path d="M277.68,58.6,296.61,67a3.1,3.1,0,0,0,3.88-1.19L320.36,34Z" style="fill:#FF725E"></path><path d="M277.68,58.6l19.06,7.12a3.11,3.11,0,0,0,3.68-1.21L320.36,34Z" style="fill:#FF725E"></path><path d="M277.68,58.6l19.06,7.12a3.11,3.11,0,0,0,3.68-1.21L320.36,34Z" style="fill:#fff;opacity:0.5"></path></g></g><g id="freepik--Tab--inject-63"><g id="freepik--Window--inject-63"><g id="freepik--window--inject-63"><g id="freepik--window--inject-63"><path d="M254.53,42.88a1.54,1.54,0,0,0-.05-.31.06.06,0,0,0,0-.07.94.94,0,0,0-.08-.31,1.35,1.35,0,0,0-.2-.44.72.72,0,0,0-.11-.19s-.06-.09-.11-.12a1,1,0,0,0-.22-.23l0,0a1.22,1.22,0,0,0-.29-.17,2.5,2.5,0,0,0-2.33.29L51.18,156.44c-1.91,1.1-3.47,3.79-3.47,7.65V358.26A2.35,2.35,0,0,0,49,360.34l.15.1.18.1a1,1,0,0,0,.29.1,1.74,1.74,0,0,0,.45.06,2.23,2.23,0,0,0,1.15-.33l.09-.05h0l3.31-1.91L251.09,245.19a7.65,7.65,0,0,0,3.47-6V43.32C254.56,43.17,254.54,43,254.53,42.88Z" style="fill:#fafafa"></path><path d="M252.63,41.84a.73.73,0,0,1,.38.09l.07,0,0,0,.06,0,.09.12h0v0l.07.11a.37.37,0,0,1,.07.14l0,0,.09.28v.06l0,0a.38.38,0,0,1,0,.1c0,.11,0,.23,0,.35V239.19a6.67,6.67,0,0,1-3,5.14L54.08,357.55l-3.21,1.85h0l-.09,0-.09.05a1.29,1.29,0,0,1-.65.2h0a.79.79,0,0,1-.23,0,.1.1,0,0,1-.07,0l-.09,0-.13-.09,0,0,0,0a1.36,1.36,0,0,1-.73-1.21v-1.75h0V164.09c0-3.74,1.53-6,3-6.79L251.58,42.18a2.25,2.25,0,0,1,1-.34m0-1a3.17,3.17,0,0,0-1.54.46L51.18,156.44c-1.91,1.1-3.47,3.79-3.47,7.65V357.5h0v.76A2.35,2.35,0,0,0,49,360.34l.15.1.18.1a1,1,0,0,0,.29.1,1.74,1.74,0,0,0,.45.06h0a2.23,2.23,0,0,0,1.1-.33l.09-.05h0l3.31-1.91L251.09,245.19a7.65,7.65,0,0,0,3.47-6V43.32c0-.15,0-.3,0-.44a1.54,1.54,0,0,0-.05-.31.06.06,0,0,0,0-.07.94.94,0,0,0-.08-.31,1.35,1.35,0,0,0-.2-.44.72.72,0,0,0-.11-.19s-.06-.09-.11-.12a1,1,0,0,0-.22-.23l0,0a1.22,1.22,0,0,0-.29-.17,1.9,1.9,0,0,0-.79-.17Z" style="fill:#e0e0e0"></path><path d="M253.42,41a2.5,2.5,0,0,0-2.33.29L51.18,156.44a7.66,7.66,0,0,0-3.47,6v6.72l-4.43-2.59v-6.64a7.67,7.67,0,0,1,3.46-6L246.66,38.81a2.41,2.41,0,0,1,2.52-.2C249.8,39,252.68,40.63,253.42,41Z" style="fill:#f0f0f0"></path><path d="M254.55,43.29c0-2.19-1.56-3.07-3.46-2L51.17,156.44a7.65,7.65,0,0,0-3.46,6v6.72L254.55,50.06Z" style="fill:#fafafa"></path><path d="M252.63,41.79c.84,0,1,.94,1,1.5v6.22l-204.94,118v-5.09a6.72,6.72,0,0,1,3-5.18L251.56,42.14a2.2,2.2,0,0,1,1.07-.35m0-.94a3.12,3.12,0,0,0-1.54.47L51.17,156.44a7.65,7.65,0,0,0-3.46,6v6.72L254.55,50.06V43.29c0-1.55-.79-2.44-1.92-2.44Z" style="fill:#e0e0e0"></path><path d="M43.28,166.58v-6.66a7.07,7.07,0,0,1,1.06-3.46L48.75,159a6.94,6.94,0,0,0-1,3.44v6.72Z" style="fill:#e0e0e0"></path><path d="M239.5,51.42A3.53,3.53,0,0,0,238,54.23c0,1.08.66,1.58,1.47,1.11A3.51,3.51,0,0,0,241,52.53C241,51.45,240.32,51,239.5,51.42Z" style="fill:#e0e0e0"></path><path d="M244.8,48.36a3.52,3.52,0,0,0-1.47,2.81c0,1.08.66,1.58,1.47,1.11a3.53,3.53,0,0,0,1.47-2.81C246.27,48.39,245.61,47.89,244.8,48.36Z" style="fill:#e0e0e0"></path><path d="M250.09,45.3a3.52,3.52,0,0,0-1.47,2.81c0,1.08.66,1.58,1.47,1.11a3.53,3.53,0,0,0,1.47-2.81C251.56,45.33,250.9,44.83,250.09,45.3Z" style="fill:#e0e0e0"></path><path d="M49,360.35l-.18-.1-3.65-2.11a3.67,3.67,0,0,1-1.81-2.68,4.36,4.36,0,0,1,0-.51V166.57l4.43,2.59V358.25a2.26,2.26,0,0,0,1.07,2l.12.08,0,0Z" style="fill:#f0f0f0"></path></g></g><path d="M69.63,167.29a.2.2,0,0,1,.27,0,.45.45,0,0,1,.12.35v8.8a12.64,12.64,0,0,1-.32,2.88,10.56,10.56,0,0,1-.9,2.48,8.66,8.66,0,0,1-1.38,2,7.42,7.42,0,0,1-1.76,1.43,4.15,4.15,0,0,1-1.78.61,1.87,1.87,0,0,1-1.37-.4,3,3,0,0,1-.89-1.45,8.42,8.42,0,0,1-.32-2.51v-8.81a1.07,1.07,0,0,1,.12-.48.64.64,0,0,1,.27-.34l1.88-1.08a.2.2,0,0,1,.27,0,.45.45,0,0,1,.11.35v8.72a2.89,2.89,0,0,0,.43,1.83c.28.33.71.34,1.28,0a3,3,0,0,0,1.28-1.5,5.88,5.88,0,0,0,.43-2.31v-8.72a1.05,1.05,0,0,1,.11-.48.75.75,0,0,1,.27-.34Z" style="fill:#e0e0e0"></path><path d="M75.65,163.59a3.74,3.74,0,0,1,1.68-.56,2.38,2.38,0,0,1,1.33.28,2.19,2.19,0,0,1,.87.91,2.81,2.81,0,0,1,.33,1.29.92.92,0,0,1-.09.39.61.61,0,0,1-.21.27l-1.88,1.08a.53.53,0,0,1-.32.1.63.63,0,0,1-.25-.12l-.14-.15a.72.72,0,0,0-.26-.16.85.85,0,0,0-.43,0,1.8,1.8,0,0,0-.63.24,4.8,4.8,0,0,0-.52.36,3.07,3.07,0,0,0-.45.43,2,2,0,0,0-.31.53,1.59,1.59,0,0,0-.12.62.66.66,0,0,0,.13.47.6.6,0,0,0,.46.14,3.48,3.48,0,0,0,.85-.12c.36-.09.8-.2,1.32-.35a4.25,4.25,0,0,1,1.38-.17,1.61,1.61,0,0,1,1,.37,2,2,0,0,1,.59,1,6.1,6.1,0,0,1,.19,1.69,7.47,7.47,0,0,1-.33,2.2,9.12,9.12,0,0,1-.92,2,9.3,9.3,0,0,1-1.41,1.77,8.52,8.52,0,0,1-1.77,1.36,4.5,4.5,0,0,1-1.78.63,2.46,2.46,0,0,1-1.38-.25,2.2,2.2,0,0,1-.91-.95,3.17,3.17,0,0,1-.34-1.45,1,1,0,0,1,.09-.4.52.52,0,0,1,.21-.26l1.87-1.08a.57.57,0,0,1,.32-.11.46.46,0,0,1,.23.1,1.92,1.92,0,0,1,.17.19,1.09,1.09,0,0,0,.31.23,1,1,0,0,0,.49.08,1.81,1.81,0,0,0,.72-.26,5.43,5.43,0,0,0,1.27-1,1.73,1.73,0,0,0,.51-1.21.46.46,0,0,0-.19-.44.9.9,0,0,0-.56-.09,5.08,5.08,0,0,0-1,.19l-1.37.35a2.08,2.08,0,0,1-2.16-.38,4,4,0,0,1-.68-2.64,7.74,7.74,0,0,1,.28-2,9.45,9.45,0,0,1,.81-2A9,9,0,0,1,74,165,7,7,0,0,1,75.65,163.59Z" style="fill:#e0e0e0"></path><path d="M88.76,168.16a.21.21,0,0,1,.28,0,.49.49,0,0,1,.11.35v2.34a1.2,1.2,0,0,1-.11.48.7.7,0,0,1-.28.34L82,175.61a.21.21,0,0,1-.27,0,.45.45,0,0,1-.12-.35V161a1.07,1.07,0,0,1,.12-.48.68.68,0,0,1,.27-.34l6.68-3.85a.2.2,0,0,1,.27,0,.45.45,0,0,1,.12.35V159a1.07,1.07,0,0,1-.12.48.75.75,0,0,1-.27.34l-4.42,2.55v2.38l4.1-2.37a.22.22,0,0,1,.28,0,.51.51,0,0,1,.11.35v2.34a1.21,1.21,0,0,1-.11.49.72.72,0,0,1-.28.33l-4.1,2.37v2.47Z" style="fill:#e0e0e0"></path><path d="M95.07,152.6a5.18,5.18,0,0,1,1.69-.67,1.83,1.83,0,0,1,1.27.2,2,2,0,0,1,.8,1.11,6.33,6.33,0,0,1,.28,2.08,9.74,9.74,0,0,1-.44,3,8.07,8.07,0,0,1-1.26,2.4l1.77,4.22a.63.63,0,0,1,0,.22,1,1,0,0,1-.1.4.56.56,0,0,1-.22.27L97,167c-.19.11-.33.13-.41,0a1.07,1.07,0,0,1-.19-.28l-1.59-3.81-1.32.76v4.73a1.2,1.2,0,0,1-.11.48.72.72,0,0,1-.28.33l-1.88,1.09a.21.21,0,0,1-.27,0,.49.49,0,0,1-.11-.35V155.66a1.2,1.2,0,0,1,.11-.48.81.81,0,0,1,.27-.34Zm-1.62,7.62,1.62-.93a3,3,0,0,0,1-.93,2.59,2.59,0,0,0,.4-1.51c0-.62-.13-1-.4-1a1.24,1.24,0,0,0-1,.22l-1.62.94Z" style="fill:#e0e0e0"></path><path d="M104.49,146.94a3.74,3.74,0,0,1,1.68-.56,2.49,2.49,0,0,1,1.33.28,2.25,2.25,0,0,1,.87.91,2.81,2.81,0,0,1,.33,1.29.92.92,0,0,1-.09.39.79.79,0,0,1-.21.27l-1.88,1.08a.53.53,0,0,1-.32.1.48.48,0,0,1-.25-.12l-.14-.14a.62.62,0,0,0-.26-.17,1,1,0,0,0-.43,0,1.67,1.67,0,0,0-.63.24,4.93,4.93,0,0,0-.53.36,3.58,3.58,0,0,0-.44.43,2,2,0,0,0-.32.53,1.59,1.59,0,0,0-.12.62.66.66,0,0,0,.14.47.59.59,0,0,0,.46.15,4.3,4.3,0,0,0,.85-.13l1.32-.34a4.49,4.49,0,0,1,1.37-.18,1.61,1.61,0,0,1,1,.37,1.93,1.93,0,0,1,.59,1,5.93,5.93,0,0,1,.2,1.68,7.47,7.47,0,0,1-.33,2.2,8.8,8.8,0,0,1-.93,2,9.48,9.48,0,0,1-1.4,1.77,8.83,8.83,0,0,1-1.77,1.35,4.56,4.56,0,0,1-1.78.63,2.43,2.43,0,0,1-1.38-.25,2.23,2.23,0,0,1-.91-.94,3.24,3.24,0,0,1-.35-1.46.88.88,0,0,1,.1-.4.63.63,0,0,1,.2-.26l1.88-1.08a.55.55,0,0,1,.32-.11.5.5,0,0,1,.23.1l.17.19a1,1,0,0,0,.31.23,1,1,0,0,0,.48.08,1.79,1.79,0,0,0,.73-.26,5.38,5.38,0,0,0,1.27-1,1.76,1.76,0,0,0,.5-1.21.47.47,0,0,0-.18-.44.92.92,0,0,0-.56-.09,4.93,4.93,0,0,0-1,.19c-.39.11-.85.22-1.37.35a2.07,2.07,0,0,1-2.16-.38,3.93,3.93,0,0,1-.68-2.64,7.32,7.32,0,0,1,.28-2,8.67,8.67,0,0,1,.81-2,9,9,0,0,1,1.28-1.79A6.88,6.88,0,0,1,104.49,146.94Z" style="fill:#e0e0e0"></path><path d="M227.85,87.88h-.08l-.79-.2a.52.52,0,0,1-.32-.26.49.49,0,0,1,0-.41l.58-1.43a.31.31,0,0,0-.07-.27,3,3,0,0,1-.22-.28s-.07-.08-.12,0l-1.07.66a.41.41,0,0,1-.64-.31L225,84.18a.87.87,0,0,1,.26-.71l1.08-.93a.7.7,0,0,0,.2-.38,7.72,7.72,0,0,1,.16-.78.16.16,0,0,0-.08-.18l-.61-.28a.57.57,0,0,1-.27-.3.53.53,0,0,1,0-.41l.77-1.58a.69.69,0,0,1,.66-.38l.76.06a.38.38,0,0,0,.29-.14,8.19,8.19,0,0,1,.59-.73.62.62,0,0,0,.14-.38l0-1.13a.91.91,0,0,1,.33-.68l1.22-.9a.42.42,0,0,1,.4-.07.41.41,0,0,1,.27.31l.24.89s.06,0,.08,0l.52-.15a.58.58,0,0,0,.32-.22l.78-1.39a.64.64,0,0,1,.7-.3l.79.2a.48.48,0,0,1,.32.25.49.49,0,0,1,0,.41l-.58,1.43a.31.31,0,0,0,.07.27,2.21,2.21,0,0,1,.22.29.09.09,0,0,0,.12,0l1.07-.66a.41.41,0,0,1,.41,0,.43.43,0,0,1,.23.34l.16,1.15a.86.86,0,0,1-.26.71l-1.08.93a.78.78,0,0,0-.2.38,7.9,7.9,0,0,1-.16.79.15.15,0,0,0,.08.17l.61.28a.53.53,0,0,1,.25.71L235,82.68a.72.72,0,0,1-.67.38l-.76-.06a.38.38,0,0,0-.29.14,8.45,8.45,0,0,1-.58.73.7.7,0,0,0-.15.39l0,1.13a1,1,0,0,1-.33.68l-1.21.89a.41.41,0,0,1-.68-.23l-.24-.9s-.06,0-.08,0a3.39,3.39,0,0,1-.52.15.58.58,0,0,0-.32.22l-.78,1.4A.67.67,0,0,1,227.85,87.88Zm-.94-3.35a.54.54,0,0,1,.4.25,1.3,1.3,0,0,0,.18.23.73.73,0,0,1,.14.73l-.57,1.43,0,.07.79.2a.2.2,0,0,0,.2-.09l.79-1.39a1,1,0,0,1,.6-.43c.15,0,.31-.08.47-.14a.49.49,0,0,1,.41,0,.45.45,0,0,1,.24.31l.25.89,1.2-.9a.46.46,0,0,0,.15-.31l0-1.13a1.06,1.06,0,0,1,.26-.69,7.72,7.72,0,0,0,.55-.7.86.86,0,0,1,.69-.32l.76.06a.26.26,0,0,0,.23-.13l.76-1.58a.09.09,0,0,0,0-.07l0,0-.61-.28a.61.61,0,0,1-.31-.68c.06-.25.11-.5.15-.74a1.17,1.17,0,0,1,.34-.65l1.08-.93a.47.47,0,0,0,.12-.32h0L236,76l-1,.67a.52.52,0,0,1-.72-.17,1,1,0,0,0-.18-.23.77.77,0,0,1-.14-.74l.57-1.43,0,0-.05,0-.79-.2a.2.2,0,0,0-.2.09l-.79,1.4a1,1,0,0,1-.6.43,3.1,3.1,0,0,0-.47.14.53.53,0,0,1-.41,0,.49.49,0,0,1-.24-.32l-.24-.89-1.21.9a.51.51,0,0,0-.15.31l0,1.13a1.06,1.06,0,0,1-.26.69c-.19.22-.38.46-.55.7a.84.84,0,0,1-.69.32l-.76-.06a.28.28,0,0,0-.23.13l-.76,1.59s0,0,0,.06a.08.08,0,0,0,.05,0l.61.28a.61.61,0,0,1,.32.69,5.11,5.11,0,0,0-.15.74,1.16,1.16,0,0,1-.35.64l-1.08.94a.45.45,0,0,0-.12.31l.17,1.15,1-.67A.52.52,0,0,1,226.91,84.53Zm2.58-.64a1.44,1.44,0,0,1-.42-.11,1.57,1.57,0,0,1-.91-1.33A5.31,5.31,0,0,1,230.28,78a2.27,2.27,0,0,1,2.16-.5,1.58,1.58,0,0,1,.91,1.34,5.32,5.32,0,0,1-2.12,4.42h0A2.63,2.63,0,0,1,229.49,83.89Zm2.48-6a2.16,2.16,0,0,0-1.43.52,4.82,4.82,0,0,0-1.95,4,1.17,1.17,0,0,0,.65,1,1.85,1.85,0,0,0,1.73-.45h0a4.81,4.81,0,0,0,1.95-4,1.16,1.16,0,0,0-.65-1A1,1,0,0,0,232,77.86Z" style="fill:#e0e0e0"></path><path d="M209.74,90.2A3.48,3.48,0,0,0,208.27,93c0,1.08.65,1.58,1.47,1.11a3.53,3.53,0,0,0,1.47-2.81C211.21,90.22,210.55,89.73,209.74,90.2Z" style="fill:#e0e0e0"></path><path d="M215,87.13a3.53,3.53,0,0,0-1.47,2.81c0,1.09.66,1.58,1.47,1.12a3.53,3.53,0,0,0,1.47-2.81C216.5,87.16,215.84,86.67,215,87.13Z" style="fill:#e0e0e0"></path><path d="M220.32,84.07a3.53,3.53,0,0,0-1.47,2.81c0,1.09.66,1.58,1.47,1.11a3.48,3.48,0,0,0,1.47-2.81C221.79,84.1,221.14,83.6,220.32,84.07Z" style="fill:#e0e0e0"></path><path d="M83.63,194.83h0a4.55,4.55,0,0,1,2.28.58c1.68,1,2.61,3.11,2.61,6,0,6.41-4.52,14.24-10.07,17.44a8.73,8.73,0,0,1-4.24,1.32,4.48,4.48,0,0,1-2.27-.58c-1.69-1-2.62-3.11-2.62-6,0-6.41,4.52-14.24,10.07-17.44a8.76,8.76,0,0,1,4.24-1.32m0-.94a9.52,9.52,0,0,0-4.71,1.44c-5.82,3.36-10.54,11.54-10.54,18.26,0,3.36,1.18,5.73,3.09,6.83a5.42,5.42,0,0,0,2.74.7,9.52,9.52,0,0,0,4.71-1.44c5.82-3.36,10.54-11.54,10.54-18.26,0-3.36-1.18-5.73-3.08-6.83a5.46,5.46,0,0,0-2.75-.7Z" style="fill:#FF725E"></path><path d="M74.78,207.64a2.69,2.69,0,0,0,4.41,2.54,9.74,9.74,0,0,0,4.41-7.63A2.69,2.69,0,0,0,79.19,200,9.75,9.75,0,0,0,74.78,207.64Z" style="fill:#455a64"></path><path d="M85,209.62a3.08,3.08,0,0,0-3.12.25l-6.22,3.59c-2.08,1.2-3.88,4-4.53,6.95.07,0,.12.09.18.13a6.58,6.58,0,0,0,5.76.07l3.4-2a23.16,23.16,0,0,0,5.93-7.05A3.21,3.21,0,0,0,85,209.62Z" style="fill:#455a64"></path><path d="M238.28,95.09v39.77l-177,101.91V197l177-101.91m.94-1.63-178.87,103v42l178.87-103V93.46Z" style="fill:#FF725E"></path><path d="M94.48,192.07v.75c0,.65.46.92,1,.59l34.32-19.68a2.24,2.24,0,0,0,1-1.76v-.75c0-.65-.46-.92-1-.6L95.51,190.31A2.23,2.23,0,0,0,94.48,192.07Z" style="fill:#e0e0e0"></path><path d="M95,200.55a.47.47,0,0,1-.24-.88l28.82-16.52a.47.47,0,0,1,.64.17.48.48,0,0,1-.17.65L95.24,200.49A.46.46,0,0,1,95,200.55Z" style="fill:#e0e0e0"></path><path d="M95,204.42a.49.49,0,0,1-.41-.24.47.47,0,0,1,.17-.64L114.88,192a.47.47,0,0,1,.47.82L95.24,204.36A.46.46,0,0,1,95,204.42Z" style="fill:#e0e0e0"></path><path d="M202.82,131.08a.47.47,0,0,1-.23-.88l28.81-16.52a.46.46,0,0,1,.64.17.47.47,0,0,1-.17.64L203.06,131A.53.53,0,0,1,202.82,131.08Z" style="fill:#e0e0e0"></path><path d="M202.82,135a.49.49,0,0,1-.41-.24.48.48,0,0,1,.18-.65l20.1-11.53a.48.48,0,0,1,.65.18.47.47,0,0,1-.18.64l-20.1,11.53A.44.44,0,0,1,202.82,135Z" style="fill:#e0e0e0"></path><path d="M202.82,139.34a.47.47,0,0,1-.23-.88l28.81-16.52a.47.47,0,0,1,.64.17.48.48,0,0,1-.17.65l-28.81,16.52A.53.53,0,0,1,202.82,139.34Z" style="fill:#e0e0e0"></path><path d="M202.82,143.21a.49.49,0,0,1-.41-.24.46.46,0,0,1,.18-.64l20.1-11.53a.47.47,0,0,1,.65.17.46.46,0,0,1-.18.64l-20.1,11.53A.44.44,0,0,1,202.82,143.21Z" style="fill:#e0e0e0"></path><path d="M136.82,189.21a.48.48,0,0,1-.47-.48v-29.9a.47.47,0,0,1,.94,0v29.9A.48.48,0,0,1,136.82,189.21Z" style="fill:#e0e0e0"></path><path d="M197.6,154.27a.47.47,0,0,1-.47-.47V123.89a.47.47,0,0,1,.94,0V153.8A.47.47,0,0,1,197.6,154.27Z" style="fill:#e0e0e0"></path><g id="freepik--social-icon--inject-63"><path d="M161.93,150.13l11.17-6.45c1-.56,1.74-.11,1.74,1v12.9a3.83,3.83,0,0,1-1.74,3L161.93,167c-1,.55-1.73.11-1.73-1v-12.9A3.81,3.81,0,0,1,161.93,150.13Z" style="fill:#e0e0e0"></path><path d="M167.52,152.34a5.4,5.4,0,0,0-2.26,4.32c0,1.66,1,2.42,2.26,1.7a5.42,5.42,0,0,0,2.25-4.31C169.77,152.39,168.76,151.63,167.52,152.34Zm0,5c-.81.46-1.47,0-1.47-1.11a3.51,3.51,0,0,1,1.47-2.8c.8-.47,1.46,0,1.46,1.11A3.53,3.53,0,0,1,167.52,157.31Zm2.34-7.14a1.27,1.27,0,0,0-.53,1c0,.38.24.56.53.39a1.24,1.24,0,0,0,.53-1C170.39,150.18,170.15,150,169.86,150.17Zm2,.25a4.22,4.22,0,0,0-.2-1.31,1.42,1.42,0,0,0-.51-.74,1.06,1.06,0,0,0-.78-.23,2.68,2.68,0,0,0-1.06.34c-.47.25-.62.33-1.81,1s-1.35.79-1.82,1.09a5.15,5.15,0,0,0-1.06.88,5,5,0,0,0-.78,1.13,5.49,5.49,0,0,0-.51,1.33,7,7,0,0,0-.2,1.54c0,.64,0,.84,0,2.43s0,1.79,0,2.4a4.28,4.28,0,0,0,.2,1.31,1.42,1.42,0,0,0,.51.74,1.11,1.11,0,0,0,.78.23,2.53,2.53,0,0,0,1.06-.35c.47-.24.62-.32,1.82-1s1.34-.78,1.81-1.08a4.92,4.92,0,0,0,1.06-.89,4.7,4.7,0,0,0,.78-1.12,5.49,5.49,0,0,0,.51-1.33,7,7,0,0,0,.2-1.54c0-.64,0-.84,0-2.43S171.91,151,171.88,150.42Zm-.79,5.24a5.36,5.36,0,0,1-.15,1.17,3.54,3.54,0,0,1-.33.87,3.49,3.49,0,0,1-.5.73,4.62,4.62,0,0,1-.82.67c-.46.29-.6.38-1.77,1.06s-1.32.75-1.78,1a2,2,0,0,1-.82.27.68.68,0,0,1-.5-.15.87.87,0,0,1-.33-.48,3.24,3.24,0,0,1-.15-1c0-.61,0-.79,0-2.36s0-1.75,0-2.38a5.36,5.36,0,0,1,.15-1.17,3.54,3.54,0,0,1,.33-.87,3.49,3.49,0,0,1,.5-.73,3.87,3.87,0,0,1,.82-.67c.46-.3.6-.38,1.78-1.06s1.31-.75,1.77-1a2,2,0,0,1,.82-.27.68.68,0,0,1,.5.15.87.87,0,0,1,.33.48,3.24,3.24,0,0,1,.15,1c0,.61,0,.79,0,2.35S171.11,155,171.09,155.66Z" style="fill:#fff"></path></g><g id="freepik--social-icon--inject-63"><path d="M156.39,155.32c0-1.1-.78-1.55-1.74-1l-11.17,6.45a3.82,3.82,0,0,0-1.73,3v12.91c0,1.1.77,1.55,1.73,1l11.17-6.45a3.85,3.85,0,0,0,1.74-3Z" style="fill:#e0e0e0"></path><path d="M151.59,173v-6.16l1.57-.9.29-2.76-1.86,1.08v-1.68a2.27,2.27,0,0,1,1.1-2l.84-.48v-2.21a10.17,10.17,0,0,0-1.5.69,5.55,5.55,0,0,0-2.54,4.95v2l-1.7,1V169l1.7-1v6.16Z" style="fill:#fff"></path></g><g id="freepik--social-icon--inject-63"><path d="M193.18,134.17c0-1.11-.78-1.56-1.74-1l-11.17,6.45a3.84,3.84,0,0,0-1.73,3v12.9c0,1.1.77,1.55,1.73,1l11.17-6.45a3.83,3.83,0,0,0,1.74-3Z" style="fill:#e0e0e0"></path><path d="M189.77,139.53c0-.06,0-.06,0,0a2.73,2.73,0,0,1-.31.14,1.45,1.45,0,0,1-1.75-1.25s0-.33,0-.48,0-.06,0,0l0,0-1.39.8c-.09.05-.08,0-.08.15v8c0,.1,0,.21,0,.31a3.31,3.31,0,0,1-.61,1.55,1.92,1.92,0,0,1-.95.77,1,1,0,0,1-.3,0h0l-.11,0c-.43-.15-.63-.58-.57-1.31a3.12,3.12,0,0,1,.86-1.91,1.65,1.65,0,0,1,.46-.36,1.21,1.21,0,0,1,.3-.11s0,0,.06-.08v-.06c0-.48,0-1.52,0-1.52v-.42s0,0,0,0a3.2,3.2,0,0,0-.57.31,4.47,4.47,0,0,0-.75.65,6.35,6.35,0,0,0-1,1.46,7,7,0,0,0-.6,1.49,6.37,6.37,0,0,0-.24,1.44,5.8,5.8,0,0,0,0,.59,4,4,0,0,0,.12.73,1.89,1.89,0,0,0,1,1.29.38.38,0,0,0,.15.05h0l.07,0a1.05,1.05,0,0,0,.24.06,2.39,2.39,0,0,0,1.63-.56,6.15,6.15,0,0,0,1.85-2.38,6.84,6.84,0,0,0,.68-2.87c0-1.34,0-2.67,0-4a.17.17,0,0,1,0-.1s0,0,.07,0a2.17,2.17,0,0,0,1.21,0,3.25,3.25,0,0,0,.76-.32c.09-.05.1-.06.1-.17C189.79,140.94,189.77,139.65,189.77,139.53Z" style="fill:#fff"></path></g><path d="M74.21,272.88a6.1,6.1,0,0,1-3.08-.8c-2.2-1.27-3.41-3.9-3.41-7.4,0-6.92,4.87-15.37,10.87-18.83,3-1.75,5.91-2,8.12-.74s3.42,3.9,3.42,7.4c0,6.92-4.88,15.37-10.88,18.84h0A10.3,10.3,0,0,1,74.21,272.88Zm9.42-27.24A9,9,0,0,0,79.25,247C73.62,250.25,69,258.18,69,264.68c0,3,1,5.23,2.76,6.26s4.19.76,6.79-.74C84.22,266.94,88.8,259,88.8,252.51c0-3-1-5.23-2.75-6.25A4.82,4.82,0,0,0,83.63,245.64Z" style="fill:#e0e0e0"></path><path d="M74.78,258.73a2.69,2.69,0,0,0,4.41,2.55,9.78,9.78,0,0,0,4.41-7.64,2.69,2.69,0,0,0-4.41-2.55A9.75,9.75,0,0,0,74.78,258.73Z" style="fill:#455a64"></path><path d="M85,260.71a3.08,3.08,0,0,0-3.12.25l-6.22,3.59c-2.08,1.2-3.88,4-4.53,7l.18.12a6.58,6.58,0,0,0,5.76.07l3.4-2a23.16,23.16,0,0,0,5.93-7.05A3.21,3.21,0,0,0,85,260.71Z" style="fill:#455a64"></path><path d="M238.28,146.19V186l-177,101.91V248.09l177-101.9m.94-1.64-178.87,103v41.94l178.87-103V144.55Z" style="fill:#e0e0e0"></path><path d="M94.48,243.16v.75c0,.66.46.92,1,.6l34.32-19.68a2.28,2.28,0,0,0,1-1.77v-.75c0-.65-.46-.92-1-.59L95.51,241.4A2.23,2.23,0,0,0,94.48,243.16Z" style="fill:#e0e0e0"></path><path d="M95,251.65a.49.49,0,0,1-.41-.24.48.48,0,0,1,.17-.65l28.82-16.52a.47.47,0,0,1,.64.18.47.47,0,0,1-.17.64L95.24,251.58A.48.48,0,0,1,95,251.65Z" style="fill:#e0e0e0"></path><path d="M95,255.51a.47.47,0,0,1-.41-.24.47.47,0,0,1,.17-.64l20.11-11.53a.47.47,0,0,1,.47.82L95.24,255.45A.46.46,0,0,1,95,255.51Z" style="fill:#e0e0e0"></path><path d="M202.82,182.17a.47.47,0,0,1-.23-.88l28.81-16.52a.47.47,0,0,1,.64.17.48.48,0,0,1-.17.65l-28.81,16.52A.53.53,0,0,1,202.82,182.17Z" style="fill:#e0e0e0"></path><path d="M202.82,186a.49.49,0,0,1-.41-.24.46.46,0,0,1,.18-.64l20.1-11.53a.47.47,0,0,1,.65.17.46.46,0,0,1-.18.64L203.06,186A.53.53,0,0,1,202.82,186Z" style="fill:#e0e0e0"></path><path d="M202.82,190.43a.47.47,0,0,1-.23-.88L231.4,173a.47.47,0,0,1,.64.17.48.48,0,0,1-.17.65l-28.81,16.52A.53.53,0,0,1,202.82,190.43Z" style="fill:#e0e0e0"></path><path d="M202.82,194.3a.49.49,0,0,1-.41-.24.47.47,0,0,1,.18-.64l20.1-11.53a.48.48,0,0,1,.65.17.48.48,0,0,1-.18.65l-20.1,11.53A.53.53,0,0,1,202.82,194.3Z" style="fill:#e0e0e0"></path><path d="M136.82,240.3a.47.47,0,0,1-.47-.47V209.92a.47.47,0,0,1,.94,0v29.91A.47.47,0,0,1,136.82,240.3Z" style="fill:#e0e0e0"></path><path d="M197.6,205.36a.47.47,0,0,1-.47-.47V175a.47.47,0,1,1,.94,0v29.9A.47.47,0,0,1,197.6,205.36Z" style="fill:#e0e0e0"></path><g id="freepik--social-icon--inject-63"><path d="M161.93,201.22l11.17-6.45c1-.55,1.74-.11,1.74,1v12.9a3.82,3.82,0,0,1-1.74,3l-11.17,6.45c-1,.56-1.73.11-1.73-1v-12.9A3.82,3.82,0,0,1,161.93,201.22Z" style="fill:#e0e0e0"></path><path d="M167.52,203.44a5.4,5.4,0,0,0-2.26,4.31c0,1.66,1,2.42,2.26,1.71a5.42,5.42,0,0,0,2.25-4.32C169.77,203.48,168.76,202.72,167.52,203.44Zm0,5c-.81.47-1.47,0-1.47-1.11a3.51,3.51,0,0,1,1.47-2.8c.8-.46,1.46,0,1.46,1.11A3.53,3.53,0,0,1,167.52,208.4Zm2.34-7.14a1.27,1.27,0,0,0-.53,1c0,.39.24.57.53.4a1.27,1.27,0,0,0,.53-1C170.39,201.27,170.15,201.09,169.86,201.26Zm2,.25a4.28,4.28,0,0,0-.2-1.31,1.42,1.42,0,0,0-.51-.74,1.11,1.11,0,0,0-.78-.23,2.57,2.57,0,0,0-1.06.35c-.47.24-.62.32-1.81,1s-1.35.78-1.82,1.08a5.17,5.17,0,0,0-1.06.89,4.7,4.7,0,0,0-.78,1.12,5.49,5.49,0,0,0-.51,1.33,7,7,0,0,0-.2,1.54c0,.64,0,.84,0,2.43s0,1.79,0,2.4a4.22,4.22,0,0,0,.2,1.31,1.42,1.42,0,0,0,.51.74,1.06,1.06,0,0,0,.78.23,2.63,2.63,0,0,0,1.06-.34c.47-.25.62-.33,1.82-1s1.34-.79,1.81-1.09a4.9,4.9,0,0,0,1.06-.88,5,5,0,0,0,.78-1.13,5.49,5.49,0,0,0,.51-1.33,7,7,0,0,0,.2-1.54c0-.64,0-.84,0-2.43S171.91,202.12,171.88,201.51Zm-.79,5.24a5.36,5.36,0,0,1-.15,1.17,3.54,3.54,0,0,1-.33.87,3.49,3.49,0,0,1-.5.73,3.87,3.87,0,0,1-.82.67c-.46.3-.6.38-1.77,1.06s-1.32.75-1.78,1a2,2,0,0,1-.82.27.68.68,0,0,1-.5-.15.87.87,0,0,1-.33-.48,3.24,3.24,0,0,1-.15-1c0-.61,0-.79,0-2.35s0-1.76,0-2.39a5.36,5.36,0,0,1,.15-1.17,3.54,3.54,0,0,1,.33-.87,3.49,3.49,0,0,1,.5-.73,4.62,4.62,0,0,1,.82-.67c.46-.29.6-.38,1.78-1.06s1.31-.75,1.77-1a2,2,0,0,1,.82-.27.68.68,0,0,1,.5.15.87.87,0,0,1,.33.48,3.24,3.24,0,0,1,.15,1c0,.61,0,.79,0,2.36S171.11,206.12,171.09,206.75Z" style="fill:#fff"></path></g><g id="freepik--social-icon--inject-63"><path d="M156.39,206.41c0-1.1-.78-1.55-1.74-1l-11.17,6.45a3.84,3.84,0,0,0-1.73,3v12.9c0,1.1.77,1.55,1.73,1l11.17-6.45a3.83,3.83,0,0,0,1.74-3Z" style="fill:#e0e0e0"></path><path d="M151.59,224.09v-6.16l1.57-.91.29-2.76-1.86,1.08v-1.68a2.25,2.25,0,0,1,1.1-2l.84-.49v-2.21a9.66,9.66,0,0,0-1.5.7,5.52,5.52,0,0,0-2.54,5v2l-1.7,1v2.59l1.7-1v6.16Z" style="fill:#fff"></path></g><g id="freepik--social-icon--inject-63"><path d="M193.18,185.26c0-1.11-.78-1.56-1.74-1l-11.17,6.45a3.82,3.82,0,0,0-1.73,3v12.9c0,1.11.77,1.56,1.73,1l11.17-6.45a3.83,3.83,0,0,0,1.74-3Z" style="fill:#e0e0e0"></path><path d="M191,189.47c-.12-.55-.49-.83-.95-.72a33,33,0,0,0-4.23,2.14,39.9,39.9,0,0,0-4.23,2.74,3.48,3.48,0,0,0-1,1.83,28.2,28.2,0,0,0-.22,3.6,23,23,0,0,0,.22,3.34c.13.55.5.83,1,.72a33.72,33.72,0,0,0,4.23-2.14,41,41,0,0,0,4.23-2.74,3.4,3.4,0,0,0,.95-1.83,27,27,0,0,0,.23-3.6A22,22,0,0,0,191,189.47Zm-6.26,9.25V194.4l2.81.54Z" style="fill:#fff"></path></g><path d="M74.21,324a6.09,6.09,0,0,1-3.08-.79c-2.2-1.28-3.41-3.91-3.41-7.4,0-6.93,4.87-15.38,10.87-18.84,3-1.75,5.91-2,8.12-.74s3.42,3.9,3.42,7.4c0,6.93-4.88,15.38-10.88,18.84A10.2,10.2,0,0,1,74.21,324Zm9.42-27.24a9,9,0,0,0-4.38,1.36C73.62,301.34,69,309.27,69,315.78c0,3,1,5.22,2.76,6.25s4.19.76,6.79-.74h0C84.22,318,88.8,310.1,88.8,303.6c0-3-1-5.22-2.75-6.25A4.82,4.82,0,0,0,83.63,296.73Z" style="fill:#e0e0e0"></path><path d="M74.78,309.82a2.69,2.69,0,0,0,4.41,2.55,9.78,9.78,0,0,0,4.41-7.64,2.69,2.69,0,0,0-4.41-2.54A9.71,9.71,0,0,0,74.78,309.82Z" style="fill:#455a64"></path><path d="M85,311.81a3,3,0,0,0-3.12.25l-6.22,3.58c-2.08,1.21-3.88,4-4.53,7l.18.12a6.54,6.54,0,0,0,5.76.07l3.4-2a23,23,0,0,0,5.93-7.05A3.16,3.16,0,0,0,85,311.81Z" style="fill:#455a64"></path><path d="M238.28,197.28v39.77L61.29,339V299.18l177-101.9m.94-1.63-178.87,103v41.94l178.87-103V195.65Z" style="fill:#e0e0e0"></path><path d="M94.48,294.26V295c0,.65.46.91,1,.59l34.32-19.68a2.28,2.28,0,0,0,1-1.77v-.75c0-.65-.46-.92-1-.59L95.51,292.49A2.25,2.25,0,0,0,94.48,294.26Z" style="fill:#e0e0e0"></path><path d="M95,302.74a.49.49,0,0,1-.41-.24.47.47,0,0,1,.17-.64l28.82-16.53a.47.47,0,0,1,.47.82L95.24,302.68A.46.46,0,0,1,95,302.74Z" style="fill:#e0e0e0"></path><path d="M95,306.6a.47.47,0,0,1-.24-.88l20.11-11.53a.48.48,0,0,1,.64.18.46.46,0,0,1-.17.64L95.24,306.54A.46.46,0,0,1,95,306.6Z" style="fill:#e0e0e0"></path><path d="M202.82,233.26a.47.47,0,0,1-.23-.88l28.81-16.52a.47.47,0,0,1,.64.17.48.48,0,0,1-.17.65L203.06,233.2A.53.53,0,0,1,202.82,233.26Z" style="fill:#e0e0e0"></path><path d="M202.82,237.13a.49.49,0,0,1-.41-.24.47.47,0,0,1,.18-.64l20.1-11.53a.48.48,0,0,1,.65.17.48.48,0,0,1-.18.65l-20.1,11.53A.53.53,0,0,1,202.82,237.13Z" style="fill:#e0e0e0"></path><path d="M202.82,241.53a.49.49,0,0,1-.41-.24.46.46,0,0,1,.18-.64l28.81-16.53a.47.47,0,0,1,.64.18.47.47,0,0,1-.17.64l-28.81,16.52A.44.44,0,0,1,202.82,241.53Z" style="fill:#e0e0e0"></path><path d="M202.82,245.39a.47.47,0,0,1-.23-.88L222.69,233a.48.48,0,0,1,.65.17.48.48,0,0,1-.18.65l-20.1,11.53A.53.53,0,0,1,202.82,245.39Z" style="fill:#e0e0e0"></path><path d="M136.82,291.39a.47.47,0,0,1-.47-.47V261a.47.47,0,0,1,.94,0v29.91A.47.47,0,0,1,136.82,291.39Z" style="fill:#e0e0e0"></path><path d="M197.6,256.45a.47.47,0,0,1-.47-.47v-29.9a.47.47,0,0,1,.94,0V256A.47.47,0,0,1,197.6,256.45Z" style="fill:#e0e0e0"></path><g id="freepik--social-icon--inject-63"><path d="M161.93,252.31l11.17-6.45c1-.55,1.74-.1,1.74,1v12.9a3.85,3.85,0,0,1-1.74,3l-11.17,6.45c-1,.55-1.73.1-1.73-1v-12.9A3.82,3.82,0,0,1,161.93,252.31Z" style="fill:#e0e0e0"></path><path d="M167.52,254.53a5.4,5.4,0,0,0-2.26,4.31c0,1.66,1,2.43,2.26,1.71a5.42,5.42,0,0,0,2.25-4.31C169.77,254.57,168.76,253.81,167.52,254.53Zm0,5c-.81.47-1.47,0-1.47-1.11a3.5,3.5,0,0,1,1.47-2.79c.8-.47,1.46,0,1.46,1.1A3.53,3.53,0,0,1,167.52,259.49Zm2.34-7.14a1.27,1.27,0,0,0-.53,1c0,.39.24.57.53.4a1.27,1.27,0,0,0,.53-1C170.39,252.36,170.15,252.19,169.86,252.35Zm2,.25a4.2,4.2,0,0,0-.2-1.3,1.49,1.49,0,0,0-.51-.75,1.16,1.16,0,0,0-.78-.23,2.73,2.73,0,0,0-1.06.35c-.47.24-.62.32-1.81,1s-1.35.78-1.82,1.08a5.22,5.22,0,0,0-1.84,2,5.49,5.49,0,0,0-.51,1.33,7,7,0,0,0-.2,1.54c0,.64,0,.84,0,2.44s0,1.78,0,2.4a4.2,4.2,0,0,0,.2,1.3,1.49,1.49,0,0,0,.51.75,1.1,1.1,0,0,0,.78.22,2.48,2.48,0,0,0,1.06-.34c.47-.24.62-.32,1.82-1s1.34-.78,1.81-1.08a5.22,5.22,0,0,0,1.06-.89,5,5,0,0,0,.78-1.13,5.34,5.34,0,0,0,.51-1.33,6.87,6.87,0,0,0,.2-1.54c0-.63,0-.84,0-2.43S171.91,253.21,171.88,252.6Zm-.79,5.24a5.48,5.48,0,0,1-.15,1.18,3.33,3.33,0,0,1-.33.86,3.24,3.24,0,0,1-.5.73,3.87,3.87,0,0,1-.82.67c-.46.3-.6.38-1.77,1.06s-1.32.75-1.78,1a2,2,0,0,1-.82.27.72.72,0,0,1-.5-.14.93.93,0,0,1-.33-.49,3.24,3.24,0,0,1-.15-1c0-.6,0-.79,0-2.35s0-1.75,0-2.38a5.38,5.38,0,0,1,.15-1.18,3.33,3.33,0,0,1,.33-.86,3,3,0,0,1,.5-.73,4.17,4.17,0,0,1,.82-.68c.46-.29.6-.38,1.78-1.06s1.31-.75,1.77-1a2,2,0,0,1,.82-.27.68.68,0,0,1,.5.15.94.94,0,0,1,.33.48,3.39,3.39,0,0,1,.15,1c0,.6,0,.78,0,2.35S171.11,257.21,171.09,257.84Z" style="fill:#fff"></path></g><g id="freepik--social-icon--inject-63"><path d="M156.39,257.51c0-1.11-.78-1.56-1.74-1L143.48,263a3.81,3.81,0,0,0-1.73,3v12.9c0,1.11.77,1.55,1.73,1l11.17-6.45a3.83,3.83,0,0,0,1.74-3Z" style="fill:#e0e0e0"></path><g id="freepik--logo--inject-63"><path d="M149.07,261.42c-2.91,1.68-5.17,5.82-5.17,9.66,0,2,.62,3.39,1.63,4a.4.4,0,0,1,.14.31l0,1.21c0,.39.31.47.58.16l1-1.2a.52.52,0,0,1,.27-.19,4.91,4.91,0,0,0,1.5-.59c2.91-1.68,5.16-5.83,5.16-9.66S152,259.74,149.07,261.42Zm3.1,3.35-1.52,4.08c-.24.65-.76,1.08-1.12.92l-1.2-.51c-.11,0-.27.05-.38.22l-1.63,2.59c-.21.35-.5.16-.35-.23l1.51-4.08c.25-.65.76-1.08,1.12-.93l1.21.51c.11.05.26,0,.37-.21l1.63-2.59C152,264.19,152.32,264.37,152.17,264.77Z" style="fill:#fff;fill-rule:evenodd"></path></g></g><g id="freepik--social-icon--inject-63"><path d="M193.18,236.35c0-1.11-.78-1.55-1.74-1l-11.17,6.45a3.82,3.82,0,0,0-1.73,3v12.9c0,1.11.77,1.56,1.73,1l11.17-6.45a3.82,3.82,0,0,0,1.74-3Z" style="fill:#e0e0e0"></path><path d="M189.77,241.71c0-.05,0-.05,0,0a1.66,1.66,0,0,1-.31.14,1.44,1.44,0,0,1-1.75-1.24s0-.34,0-.48,0-.07,0,0l0,0-1.39.8c-.09.06-.08,0-.08.16v8c0,.1,0,.2,0,.31a3.31,3.31,0,0,1-.61,1.55,1.84,1.84,0,0,1-.95.76,1,1,0,0,1-.3.05l0,0-.11,0c-.43-.15-.63-.58-.57-1.3a3.12,3.12,0,0,1,.86-1.92,1.81,1.81,0,0,1,.46-.35.94.94,0,0,1,.3-.12s0,0,.06-.08v0c0-.48,0-1.53,0-1.53v-.41s0,0,0,0a3.2,3.2,0,0,0-.57.31,4.06,4.06,0,0,0-.75.65,6.51,6.51,0,0,0-1,1.45,6.91,6.91,0,0,0-.6,1.5,6.19,6.19,0,0,0-.24,1.44,5.8,5.8,0,0,0,0,.59,3.86,3.86,0,0,0,.12.72,1.87,1.87,0,0,0,1,1.29.27.27,0,0,0,.15.05h0l.07,0a.69.69,0,0,0,.24.05,2.38,2.38,0,0,0,1.63-.55,6.23,6.23,0,0,0,1.85-2.38,6.88,6.88,0,0,0,.68-2.88c0-1.34,0-2.67,0-4,0,0,0-.07,0-.1s0,0,.07,0a2.16,2.16,0,0,0,1.21,0,3.25,3.25,0,0,0,.76-.32c.09-.05.1-.06.1-.17C189.79,243.12,189.77,241.84,189.77,241.71Z" style="fill:#fff"></path></g><path d="M248.62,241.61h0c-1.1.64-2,0-2-1.51V62.58a4.77,4.77,0,0,1,2-3.81h0c1.11-.64,2,0,2,1.51V237.8A4.75,4.75,0,0,1,248.62,241.61Z" style="fill:#e0e0e0"></path><path d="M248.62,91h0c-.59.34-1.07,0-1.07-.8V62.49a2.55,2.55,0,0,1,1.07-2h0c.59-.34,1.07,0,1.07.8V89A2.55,2.55,0,0,1,248.62,91Z" style="fill:#fafafa"></path></g></g><g id="freepik--Screen--inject-63"><g id="freepik--window--inject-63"><g id="freepik--window--inject-63"><g id="freepik--window--inject-63"><path d="M377.83,61.36a1.23,1.23,0,0,0-.07-.39s0-.06,0-.09a1.06,1.06,0,0,0-.1-.37,1.67,1.67,0,0,0-.25-.54.55.55,0,0,0-.14-.23.88.88,0,0,0-.12-.15,1.48,1.48,0,0,0-.28-.28l0,0a1.58,1.58,0,0,0-.36-.2,3,3,0,0,0-2.85.36L129.15,200.22c-2.33,1.35-4.24,4.64-4.24,9.36V409.64a2.86,2.86,0,0,0,1.53,2.54l.18.13.22.12a1.55,1.55,0,0,0,.36.13,2.57,2.57,0,0,0,.55.06,2.64,2.64,0,0,0,1.4-.4l.11-.06h0l4-2.33L373.62,271.37a9.36,9.36,0,0,0,4.24-7.34V61.88A4.28,4.28,0,0,0,377.83,61.36Z" style="fill:#fafafa"></path><path d="M375.5,60.08a1,1,0,0,1,.48.11l.08,0h0l.07.05,0,0,.1.14h0v0l.09.14a.56.56,0,0,1,.09.17l0,0,.11.34v0l0,0,0,.07a.53.53,0,0,1,0,.12,2.86,2.86,0,0,1,0,.42V264a8.19,8.19,0,0,1-3.63,6.29L132.71,408.77,128.77,411h0l-.11.07-.11.06a1.67,1.67,0,0,1-.74.24h-.06a1.16,1.16,0,0,1-.28,0l-.08,0-.12-.07-.09-.06-.07,0,0,0,0,0a1.66,1.66,0,0,1-.89-1.48V407.5h0V209.58c0-4.58,1.88-7.3,3.64-8.31L374.22,60.49a2.74,2.74,0,0,1,1.28-.41m0-1.21a3.81,3.81,0,0,0-1.88.57L129.15,200.22c-2.34,1.35-4.24,4.64-4.24,9.36V408.71h0v.93a2.86,2.86,0,0,0,1.53,2.54l.18.13.22.12a1.55,1.55,0,0,0,.36.13,2.57,2.57,0,0,0,.55.06h.06a2.72,2.72,0,0,0,1.34-.41l.11-.06h0l4-2.33L373.62,271.37a9.36,9.36,0,0,0,4.24-7.34V61.88a4.28,4.28,0,0,0,0-.52,1.23,1.23,0,0,0-.07-.39s0-.06,0-.09a1.06,1.06,0,0,0-.1-.37,1.67,1.67,0,0,0-.25-.54.55.55,0,0,0-.14-.23.88.88,0,0,0-.12-.15,1.48,1.48,0,0,0-.28-.28l0,0a1.58,1.58,0,0,0-.36-.2,2.22,2.22,0,0,0-1-.21Z" style="fill:#FF725E"></path><path d="M376.47,59.08a3,3,0,0,0-2.85.36L129.15,200.22a9.37,9.37,0,0,0-4.24,7.34v8.22l-5.41-3.17v-8.12a9.34,9.34,0,0,1,4.23-7.33L368.21,56.38a2.94,2.94,0,0,1,3.08-.25C372.05,56.59,375.57,58.6,376.47,59.08Z" style="fill:#FF725E"></path><path d="M377.85,61.86c0-2.68-1.9-3.76-4.23-2.42L129.15,200.22a9.37,9.37,0,0,0-4.24,7.34v8.22L377.85,70.13Z" style="fill:#FF725E"></path><g style="opacity:0.2"><path d="M373.62,59.44,129.15,200.22a8.76,8.76,0,0,0-3,3.14l-5.38-3.11a8.54,8.54,0,0,1,2.94-3.1L368.21,56.37a3,3,0,0,1,3.08-.25c.76.47,4.27,2.47,5.17,3A3.05,3.05,0,0,0,373.62,59.44Z" style="fill:#fff"></path></g><path d="M119.49,212.62v-8.14a8.66,8.66,0,0,1,1.29-4.23l5.39,3.1a8.62,8.62,0,0,0-1.26,4.21v8.22Z" style="opacity:0.15"></path><path d="M359.46,71.79a4.31,4.31,0,0,0-1.8,3.44c0,1.32.8,1.93,1.8,1.36a4.3,4.3,0,0,0,1.79-3.44C361.25,71.83,360.45,71.22,359.46,71.79Z" style="fill:#fafafa"></path><path d="M365.93,68.05a4.31,4.31,0,0,0-1.8,3.44c0,1.32.81,1.93,1.8,1.36a4.34,4.34,0,0,0,1.8-3.44C367.73,68.09,366.92,67.48,365.93,68.05Z" style="fill:#fafafa"></path><path d="M372.4,64.31a4.3,4.3,0,0,0-1.79,3.43c0,1.33.8,1.94,1.79,1.36a4.28,4.28,0,0,0,1.8-3.43C374.2,64.34,373.4,63.73,372.4,64.31Z" style="fill:#fafafa"></path><path d="M126.43,412.2l-.22-.12-4.46-2.59a4.47,4.47,0,0,1-2.21-3.28,4.32,4.32,0,0,1-.05-.62v-193l5.42,3.17V409.63a2.77,2.77,0,0,0,1.32,2.41.51.51,0,0,0,.13.09l0,0Z" style="fill:#FF725E"></path><path d="M126.43,412.2l-.22-.12-4.46-2.59a4.47,4.47,0,0,1-2.21-3.28,4.32,4.32,0,0,1-.05-.62v-193l5.42,3.17V409.63a2.77,2.77,0,0,0,1.32,2.41.51.51,0,0,0,.13.09l0,0Z" style="fill:#fff;opacity:0.5"></path></g></g><g id="freepik--Character--inject-63"><path d="M209.6,220c0,10.84-3.77,22.83-9.88,33.49q-1.46,2.55-3.09,5c-1.08,1.61-2.22,3.17-3.39,4.69-1.05,1.34-2.12,2.64-3.23,3.89-.52.59-1.07,1.18-1.6,1.74a58.82,58.82,0,0,1-13,10.49,38.49,38.49,0,0,1-7.13,3.26c-.8.26-1.59.49-2.36.67a20.63,20.63,0,0,1-12.21-.37c-7.65-2.83-12.52-11-12.53-23.31,0-21.83,15.33-48.38,34.23-59.28S209.6,198.19,209.6,220Z" style="fill:#fafafa"></path><g id="freepik--character--inject-63"><path d="M156.41,230.93c-1,3.92-.48,8,.15,12s1.37,8,.95,12c-.09.8-.16,1.74.45,2.25a1.59,1.59,0,0,0,2-.19,4.58,4.58,0,0,0,1.09-1.84l.72,8.66a5.16,5.16,0,0,0,.81,2.82c1,1.26,2.95,1.27,4.49.77,3.65-1.18,6.33-4.52,7.48-8.19a24.17,24.17,0,0,0,.26-11.41,47.09,47.09,0,0,0-5.32-14.72c-1.39-2.48-3-4.86-3.93-7.56a8.44,8.44,0,0,0-1.33-3c-.37-.43-.7-.29-1.18-.1a10.58,10.58,0,0,0-1.34.69,10.81,10.81,0,0,0-2.3,2,13.56,13.56,0,0,0-1.75,2.55,14,14,0,0,0-1.13,2.88Z" style="fill:#37474f"></path><g id="freepik--Arm--inject-63"><path d="M199.72,253.51q-1.46,2.55-3.09,5c-1.08,1.61-2.22,3.17-3.39,4.69l-3.05-8.76h0C194.31,253.17,197,252.53,199.72,253.51Z" style="fill:#ffbda7"></path></g><g id="freepik--Chest--inject-63"><path d="M196.44,257.11q-1.63,2.42-3.4,4.69-1.56,2-3.23,3.89c-.52.58-1.07,1.17-1.6,1.74a58.77,58.77,0,0,1-13,10.49,38.86,38.86,0,0,1-7.14,3.26c-.79.26-1.59.49-2.36.67A39.16,39.16,0,0,0,162,265.71s2.84-1.51,8.26-4.47l.18-.12c4.32-3,7.23-2.43,15.17-5.83.13-.07-1-.64-.83-.69L190,253h0A59.33,59.33,0,0,1,196.44,257.11Z" style="fill:#FF725E"></path></g><g id="freepik--Head--inject-63"><path d="M170,252.12c-.64-2.42-3.64-4.17-6.47-8.36s-6.48-13.62-.71-18c-1.06-5.64,3.46-12.58,9.63-15.35,8.12-3.65,17.61-3.15,23.1,3.8,6.5,8.21-.21,16-.21,16Z" style="fill:#455a64"></path><path d="M194.54,243.18a11.21,11.21,0,0,1-2.4,4.76c-1.4,1.68-3.34,2.58-6.54,3.68l.09,2.18.06,1.41.06,1.46.05,2.51s3.86,4.56,4.15,7.89c-.52.59-1.07,1.18-1.6,1.74A37.29,37.29,0,0,1,170.47,263v-.37l-.17-3.66-.4-8.94-.07-2.52a2.32,2.32,0,0,1-.41.95,3.58,3.58,0,0,1-1.33,1.1,3.85,3.85,0,0,1-3.25.18l-.24-.13a1.2,1.2,0,0,1-.34-.17,1.11,1.11,0,0,1-.27-.17.89.89,0,0,1-.22-.16h0a1.3,1.3,0,0,1-.23-.18,6.47,6.47,0,0,1-1.93-7.46c.8-1.89,3-3.57,4.56-2.93s1.83,1.66,2.54,2.8,4-2.36,1.73-8.3c2.72-2.15,4-7.15,3.29-9.55,1.18-4.32,9.2-4.86,10.61-3.23,1.17-2.72,1-4.37,3.31-3.66s6.09,2.21,7.43,11.62A39.34,39.34,0,0,1,194.54,243.18Z" style="fill:#ffbda7"></path><path d="M180.39,242.3l4.79.13a3.15,3.15,0,0,1-3.13,2.78C180.74,245.11,180.16,243.89,180.39,242.3Z" style="fill:#b16668"></path><path d="M183.4,244.92a2.08,2.08,0,0,0-2.8-1.71l-.23.11a1.84,1.84,0,0,0,1.68,1.89A2.64,2.64,0,0,0,183.4,244.92Z" style="fill:#f28f8f"></path><polygon points="184.85 229.7 185.95 239.05 190.43 236.01 184.85 229.7" style="fill:#f0997a"></polygon><path d="M189.7,230.15a1.24,1.24,0,0,0,1.52,1.32,2.08,2.08,0,0,0,1.56-1.94,1.24,1.24,0,0,0-1.51-1.32A2.09,2.09,0,0,0,189.7,230.15Z" style="fill:#263238"></path><path d="M178.61,233.91a1.24,1.24,0,0,0,1.52,1.32,2.09,2.09,0,0,0,1.56-1.94,1.24,1.24,0,0,0-1.51-1.32A2.09,2.09,0,0,0,178.61,233.91Z" style="fill:#263238"></path><path d="M185.61,251.62a21.28,21.28,0,0,1-9.54-.45,9.31,9.31,0,0,1-4.48-3.7s-.33,3,4.18,5.13c3.54,1.65,9.93,1.21,9.93,1.21Z" style="fill:#f0997a"></path><path d="M192.6,225.53l-3.41.22a2.78,2.78,0,0,1,2.23-2C192.37,223.68,192.9,224.48,192.6,225.53Z" style="fill:#263238"></path><path d="M181.29,228.57l-3.72,2.48a2.64,2.64,0,0,1,1.27-2.81C179.87,227.56,181,227.7,181.29,228.57Z" style="fill:#263238"></path><path d="M187.64,216.23c.68,3.72-3.66,12.33-9.46,16.24s-9.54,3.16-9.54,3.16-.68-11.87,5.09-16.35S187.64,216.23,187.64,216.23Z" style="fill:#455a64"></path></g><g id="freepik--arm--inject-63"><path d="M168.25,282.56c-.8.26-1.59.49-2.36.67a20.63,20.63,0,0,1-12.21-.37,13,13,0,0,1-3.79-3c4.19-9.93,6.41-11.81,12.11-14.16h0C165.88,268.54,167.61,278.19,168.25,282.56Z" style="fill:#ffbda7"></path></g></g><path d="M190.67,197.48h0c10.51,0,17,8.64,17,22.54,0,10.16-3.42,21.71-9.64,32.55-.93,1.64-1.94,3.28-3,4.86s-2.18,3.11-3.33,4.59-2.11,2.63-3.15,3.79c-.51.58-1,1.15-1.55,1.7a57.2,57.2,0,0,1-12.6,10.15,37.74,37.74,0,0,1-6.78,3.11c-.76.25-1.5.46-2.22.62a22.26,22.26,0,0,1-5.35.69,16.31,16.31,0,0,1-5.75-1c-7.17-2.65-11.29-10.5-11.3-21.53,0-21.2,14.93-47.06,33.29-57.65,5-2.89,10-4.42,14.34-4.42m0-1.89c-4.6,0-9.79,1.5-15.29,4.68-18.9,10.9-34.23,37.45-34.23,59.28,0,12.3,4.88,20.48,12.53,23.31a18.28,18.28,0,0,0,6.41,1.11,24.15,24.15,0,0,0,5.8-.74c.77-.18,1.56-.41,2.36-.67a38.49,38.49,0,0,0,7.13-3.26,58.82,58.82,0,0,0,13-10.49c.53-.56,1.08-1.15,1.6-1.74,1.11-1.25,2.18-2.55,3.23-3.89,1.17-1.52,2.31-3.08,3.39-4.69s2.12-3.28,3.09-5c6.11-10.66,9.88-22.65,9.88-33.49,0-15.48-7.71-24.43-18.93-24.43Z" style="fill:#FF725E"></path></g><path d="M222.38,350.2a.94.94,0,0,1-.94-.94V169.7a.94.94,0,0,1,1.88,0V349.26A.94.94,0,0,1,222.38,350.2Z" style="fill:#e0e0e0"></path><path d="M146.33,310.36v1.41c0,1.22.86,1.72,1.92,1.11l54.25-31.1a4.22,4.22,0,0,0,1.92-3.31v-1.41c0-1.22-.86-1.72-1.92-1.11l-54.25,31.1A4.22,4.22,0,0,0,146.33,310.36Z" style="fill:#e0e0e0"></path><path d="M157,315.9a.94.94,0,0,1-.47-1.76l36.75-21.08a.95.95,0,1,1,.94,1.64l-36.75,21.07A.9.9,0,0,1,157,315.9Z" style="fill:#e0e0e0"></path><path d="M161.81,334a.95.95,0,0,1-.47-1.77l36.76-21.07a.94.94,0,1,1,.94,1.63l-36.76,21.08A.9.9,0,0,1,161.81,334Z" style="fill:#e0e0e0"></path><path d="M150.38,354a.94.94,0,0,1-.47-1.76l50-28.68a.95.95,0,0,1,.94,1.64l-50,28.67A.84.84,0,0,1,150.38,354Z" style="fill:#e0e0e0"></path><path d="M150.38,361.53a.94.94,0,0,1-.47-1.76l50-28.68a.95.95,0,0,1,.94,1.64l-50,28.67A.84.84,0,0,1,150.38,361.53Z" style="fill:#e0e0e0"></path><path d="M150.38,369.05a.94.94,0,0,1-.47-1.76l50-28.68a.95.95,0,1,1,.94,1.64l-50,28.68A1,1,0,0,1,150.38,369.05Z" style="fill:#e0e0e0"></path><path d="M150.38,376.57a.94.94,0,0,1-.47-1.76l50-28.67a.94.94,0,1,1,.94,1.63l-50,28.68A1,1,0,0,1,150.38,376.57Z" style="fill:#e0e0e0"></path><path d="M157,331.26c0-3-2-4.26-4.38-2.86a10,10,0,0,0-4.38,7.92V337c0,2.29,2.6,4.95,3.79,6.06a.59.59,0,0,0,.93-.18c1-2.11,4-8.47,4-10.93ZM152.65,336c-1.21.7-2.19.13-2.19-1.26a4.82,4.82,0,0,1,2.19-3.79c1.21-.7,2.19-.14,2.19,1.26A4.83,4.83,0,0,1,152.65,336Z" style="fill:#e0e0e0"></path><path d="M233.92,210.75a.94.94,0,0,1-.47-1.76L366.8,132.51a.95.95,0,1,1,.94,1.64L234.39,210.62A.9.9,0,0,1,233.92,210.75Z" style="fill:#e0e0e0"></path><path d="M233.92,302.94a.93.93,0,0,1-.82-.48,1,1,0,0,1,.35-1.29L366.8,224.7a.95.95,0,1,1,.94,1.64L234.39,302.81A.9.9,0,0,1,233.92,302.94Z" style="fill:#e0e0e0"></path><path d="M249.37,276.68l-6.18,3.56a1.71,1.71,0,0,0-.7,1.35v.14c0,.51.32.75.7.53l6.18-3.56a1.72,1.72,0,0,0,.7-1.35v-.14C250.07,276.69,249.75,276.45,249.37,276.68Z" style="fill:#455a64"></path><path d="M262.76,268.94l-6.17,3.56a1.69,1.69,0,0,0-.7,1.35V274c0,.52.31.76.7.53l6.17-3.56a1.7,1.7,0,0,0,.71-1.35v-.14C263.47,269,263.15,268.72,262.76,268.94Z" style="fill:#455a64"></path><path d="M276.16,261.2,270,264.77a1.66,1.66,0,0,0-.7,1.34v.14c0,.52.31.76.7.53l6.17-3.56a1.68,1.68,0,0,0,.71-1.34v-.14C276.87,261.22,276.55,261,276.16,261.2Z" style="fill:#455a64"></path><path d="M289.56,253.47,283.39,257a1.68,1.68,0,0,0-.7,1.34v.14c0,.52.31.76.7.54l6.17-3.57a1.67,1.67,0,0,0,.71-1.34V254C290.27,253.48,290,253.24,289.56,253.47Z" style="fill:#455a64"></path><path d="M303,245.73l-6.17,3.56a1.69,1.69,0,0,0-.7,1.35v.14c0,.52.31.76.7.53l6.17-3.56a1.7,1.7,0,0,0,.71-1.35v-.14C303.67,245.74,303.35,245.5,303,245.73Z" style="fill:#455a64"></path><path d="M316.36,238l-6.17,3.57a1.66,1.66,0,0,0-.7,1.34V243c0,.52.31.76.7.53l6.17-3.56a1.68,1.68,0,0,0,.7-1.35v-.14C317.06,238,316.75,237.77,316.36,238Z" style="fill:#455a64"></path><path d="M329.76,230.26l-6.17,3.56a1.68,1.68,0,0,0-.71,1.34v.14c0,.52.32.76.71.54l6.17-3.57a1.66,1.66,0,0,0,.7-1.34v-.14C330.46,230.27,330.15,230,329.76,230.26Z" style="fill:#455a64"></path><path d="M343.16,222.52,337,226.08a1.7,1.7,0,0,0-.71,1.35v.14c0,.52.32.75.71.53l6.17-3.56a1.69,1.69,0,0,0,.7-1.35v-.14C343.86,222.53,343.55,222.29,343.16,222.52Z" style="fill:#455a64"></path><path d="M356.56,214.78l-6.17,3.56a1.7,1.7,0,0,0-.71,1.35v.14c0,.52.32.76.71.53l6.17-3.56a1.68,1.68,0,0,0,.7-1.35v-.14C357.26,214.8,357,214.56,356.56,214.78Z" style="fill:#455a64"></path><polygon points="242.26 258.45 249.85 254.07 249.85 266.54 242.26 270.93 242.26 258.45" style="fill:#FF725E"></polygon><polygon points="255.66 237.86 263.25 233.48 263.25 258.81 255.66 263.19 255.66 237.86" style="fill:#FF725E"></polygon><polygon points="255.66 237.86 263.25 233.48 263.25 258.81 255.66 263.19 255.66 237.86" style="fill:#fff;opacity:0.8"></polygon><polygon points="269.05 214.09 276.64 209.71 276.64 251.08 269.05 255.46 269.05 214.09" style="fill:#FF725E"></polygon><polygon points="269.05 214.09 276.64 209.71 276.64 251.08 269.05 255.46 269.05 214.09" style="fill:#fff;opacity:0.30000000000000004"></polygon><polygon points="282.44 228.75 290.03 224.37 290.03 243.34 282.44 247.72 282.44 228.75" style="fill:#FF725E"></polygon><polygon points="282.44 228.75 290.03 224.37 290.03 243.34 282.44 247.72 282.44 228.75" style="fill:#fff;opacity:0.6000000000000001"></polygon><polygon points="295.84 216.81 303.43 212.42 303.43 235.61 295.84 239.99 295.84 216.81" style="fill:#FF725E"></polygon><polygon points="295.84 216.81 303.43 212.42 303.43 235.61 295.84 239.99 295.84 216.81" style="fill:#fff;opacity:0.8"></polygon><polygon points="309.23 201.91 316.82 197.53 316.82 227.88 309.23 232.26 309.23 201.91" style="fill:#FF725E"></polygon><polygon points="322.63 210.5 330.22 206.11 330.22 220.14 322.63 224.53 322.63 210.5" style="fill:#FF725E"></polygon><polygon points="322.63 210.5 330.22 206.11 330.22 220.14 322.63 224.53 322.63 210.5" style="fill:#fff;opacity:0.30000000000000004"></polygon><polygon points="336.02 198.29 343.61 193.91 343.61 212.41 336.02 216.79 336.02 198.29" style="fill:#FF725E"></polygon><polygon points="336.02 198.29 343.61 193.91 343.61 212.41 336.02 216.79 336.02 198.29" style="fill:#fff;opacity:0.8"></polygon><polygon points="349.42 187.59 357 183.2 357 204.68 349.42 209.06 349.42 187.59" style="fill:#FF725E"></polygon><path d="M356.87,166.9c-8.39,17.76-19.48,22.94-26.42,22a23.81,23.81,0,0,1-6.07-1.79c-3.29-1.34-5.89-2.4-11.35.75-3.51,2-6.41,5.76-9.23,9.37-3.64,4.68-7.09,9.11-11.29,8.7-2.95-.28-5-2.43-7-4.5-3.09-3.21-6.29-6.52-12.64-2.85-10.62,6.12-22.76,29.37-31,46.32l.78.79c8.07-16.67,20-39.5,30.2-45.4,5.87-3.39,8.77-.39,11.83,2.79,2.08,2.15,4.23,4.38,7.38,4.69,4.66.44,8.33-4.26,12.21-9.25,2.7-3.47,5.5-7.06,8.76-8.94,5.14-3,7.49-2,10.75-.68a23.93,23.93,0,0,0,6.2,1.83c7.27,1,18.88-4.43,27.68-23.05Z" style="fill:#FF725E"></path><path d="M356.87,166.9c-8.39,17.76-19.48,22.94-26.42,22a23.81,23.81,0,0,1-6.07-1.79c-3.29-1.34-5.89-2.4-11.35.75-3.51,2-6.41,5.76-9.23,9.37-3.64,4.68-7.09,9.11-11.29,8.7-2.95-.28-5-2.43-7-4.5-3.09-3.21-6.29-6.52-12.64-2.85-10.62,6.12-22.76,29.37-31,46.32l.78.79c8.07-16.67,20-39.5,30.2-45.4,5.87-3.39,8.77-.39,11.83,2.79,2.08,2.15,4.23,4.38,7.38,4.69,4.66.44,8.33-4.26,12.21-9.25,2.7-3.47,5.5-7.06,8.76-8.94,5.14-3,7.49-2,10.75-.68a23.93,23.93,0,0,0,6.2,1.83c7.27,1,18.88-4.43,27.68-23.05Z" style="fill:#fff;opacity:0.30000000000000004"></path><path d="M274.88,295.69a.93.93,0,0,1-.82-.48.94.94,0,0,1,.35-1.29L309,274.08a.94.94,0,1,1,.93,1.63l-34.61,19.85A.87.87,0,0,1,274.88,295.69Z" style="fill:#e0e0e0"></path><path d="M274.88,303.31a.94.94,0,0,1-.47-1.76L309,281.7a.94.94,0,1,1,.93,1.63l-34.61,19.85A.87.87,0,0,1,274.88,303.31Z" style="fill:#e0e0e0"></path><path d="M274.88,310.93a.94.94,0,0,1-.47-1.76L309,289.32A.94.94,0,0,1,310,291L275.34,310.8A.87.87,0,0,1,274.88,310.93Z" style="fill:#e0e0e0"></path><path d="M234.68,309.15l32.66-18.86c.42-.25.76-.05.76.43v29.5a1.67,1.67,0,0,1-.76,1.31l-32.66,18.86c-.42.24-.76.05-.76-.44V310.46A1.67,1.67,0,0,1,234.68,309.15Z" style="fill:#e0e0e0"></path><path d="M255.3,318.93l2.58,3.63-11.67-10.62-12.29,20.83V340c0,.49.34.68.76.44l32.66-18.86a1.67,1.67,0,0,0,.76-1.31v-4L259.4,310Z" style="fill:#f5f5f5"></path><path d="M256.71,301.47c1.52-.88,2.75-.17,2.75,1.59a6.1,6.1,0,0,1-2.75,4.78c-1.53.88-2.76.16-2.76-1.6A6.08,6.08,0,0,1,256.71,301.47Z" style="fill:#f5f5f5"></path><path d="M356.38,249a1,1,0,0,1-.82-.48,1,1,0,0,1,.36-1.29L366.8,241a.95.95,0,1,1,.94,1.64l-10.89,6.2A.9.9,0,0,1,356.38,249Z" style="fill:#e0e0e0"></path><path d="M356.38,256.57a.95.95,0,0,1-.46-1.77l10.88-6.2a.95.95,0,0,1,.94,1.64l-10.89,6.2A.9.9,0,0,1,356.38,256.57Z" style="fill:#e0e0e0"></path><path d="M356.38,264.19a1,1,0,0,1-.82-.48.94.94,0,0,1,.36-1.28l10.88-6.21a1,1,0,0,1,1.29.36.94.94,0,0,1-.35,1.28l-10.89,6.21A1,1,0,0,1,356.38,264.19Z" style="fill:#e0e0e0"></path><path d="M316.19,262.41l32.66-18.87c.42-.24.76,0,.76.44v29.49a1.67,1.67,0,0,1-.76,1.32l-32.66,18.86c-.42.24-.76.05-.76-.44V263.72A1.67,1.67,0,0,1,316.19,262.41Z" style="fill:#e0e0e0"></path><path d="M336.81,272.19l2.58,3.63L327.72,265.2,315.43,286v7.18c0,.49.34.68.76.44l32.66-18.86a1.67,1.67,0,0,0,.76-1.32v-3.94l-8.7-6.27Z" style="fill:#f5f5f5"></path><path d="M338.21,254.73c1.53-.88,2.76-.17,2.76,1.59a6.08,6.08,0,0,1-2.76,4.78c-1.52.88-2.75.16-2.75-1.6A6.1,6.1,0,0,1,338.21,254.73Z" style="fill:#f5f5f5"></path><g id="freepik--social-icon--inject-63"><path d="M273.35,145.83l18.45-10.65c1.58-.91,2.86-.17,2.86,1.66v21.3a6.35,6.35,0,0,1-2.86,5l-18.44,10.65c-1.59.91-2.87.17-2.87-1.66v-21.3A6.35,6.35,0,0,1,273.35,145.83Z" style="fill:#FF725E"></path><g style="opacity:0.5"><path d="M273.35,145.83l18.45-10.65c1.58-.91,2.86-.17,2.86,1.66v21.3a6.35,6.35,0,0,1-2.86,5l-18.44,10.65c-1.59.91-2.87.17-2.87-1.66v-21.3A6.35,6.35,0,0,1,273.35,145.83Z" style="fill:#fff"></path></g><path d="M282.58,149.5c-2.06,1.19-3.73,4.37-3.73,7.12s1.67,4,3.73,2.81,3.72-4.37,3.72-7.12S284.64,148.31,282.58,149.5Zm0,8.19c-1.34.77-2.42-.05-2.42-1.83a5.78,5.78,0,0,1,2.42-4.62c1.33-.77,2.42,0,2.42,1.83A5.81,5.81,0,0,1,282.58,157.69Zm3.87-11.79a2.1,2.1,0,0,0-.87,1.67c0,.64.39.93.87.66a2.1,2.1,0,0,0,.87-1.67C287.32,145.92,286.93,145.63,286.45,145.9Zm3.34.41a7.15,7.15,0,0,0-.34-2.15,2.42,2.42,0,0,0-.83-1.23,1.86,1.86,0,0,0-1.29-.38,4.38,4.38,0,0,0-1.76.57c-.77.4-1,.53-3,1.67s-2.22,1.29-3,1.79a8.21,8.21,0,0,0-1.76,1.46,8.45,8.45,0,0,0-1.29,1.86,9.8,9.8,0,0,0-.84,2.2,11.38,11.38,0,0,0-.33,2.54c0,1.05-.05,1.39-.05,4s0,3,.05,4a6.9,6.9,0,0,0,.33,2.15,2.49,2.49,0,0,0,.84,1.23,1.84,1.84,0,0,0,1.29.38,4.42,4.42,0,0,0,1.76-.57c.77-.4,1-.53,3-1.67s2.22-1.29,3-1.79a8.47,8.47,0,0,0,1.76-1.46,8.8,8.8,0,0,0,1.29-1.86,9.3,9.3,0,0,0,.83-2.2,11.93,11.93,0,0,0,.34-2.54c0-1,0-1.39,0-4S289.83,147.32,289.79,146.31ZM288.48,155a8.49,8.49,0,0,1-.25,1.94,5.62,5.62,0,0,1-.54,1.43,5.28,5.28,0,0,1-.83,1.21,6.37,6.37,0,0,1-1.35,1.11c-.77.49-1,.63-2.93,1.75s-2.17,1.24-2.93,1.63a3.36,3.36,0,0,1-1.35.45,1.18,1.18,0,0,1-.84-.24,1.63,1.63,0,0,1-.54-.8,5.3,5.3,0,0,1-.25-1.66c0-1,0-1.3,0-3.88s0-2.89,0-3.93a8.7,8.7,0,0,1,.25-1.95,6.11,6.11,0,0,1,.54-1.42,5.41,5.41,0,0,1,.84-1.21,6.11,6.11,0,0,1,1.35-1.11c.76-.49,1-.63,2.93-1.75s2.16-1.24,2.93-1.63a3.31,3.31,0,0,1,1.35-.45,1.14,1.14,0,0,1,.83.24,1.56,1.56,0,0,1,.54.8,5.3,5.3,0,0,1,.25,1.66c0,1,0,1.3,0,3.88S288.52,153.92,288.48,155Z" style="fill:#fff"></path></g><g id="freepik--social-icon--inject-63"><path d="M264.21,154.41c0-1.82-1.29-2.56-2.87-1.65L242.9,163.41a6.33,6.33,0,0,0-2.87,5v21.3c0,1.82,1.29,2.56,2.87,1.65l18.44-10.65a6.33,6.33,0,0,0,2.87-5Z" style="fill:#FF725E"></path><g style="opacity:0.5"><path d="M264.21,154.41c0-1.82-1.29-2.56-2.87-1.65L242.9,163.41a6.33,6.33,0,0,0-2.87,5v21.3c0,1.82,1.29,2.56,2.87,1.65l18.44-10.65a6.33,6.33,0,0,0,2.87-5Z" style="fill:#fff"></path></g><path d="M256.28,183.59V173.42l2.59-1.49.49-4.56-3.08,1.78v-2.78a3.71,3.71,0,0,1,1.81-3.35l1.4-.81v-3.64a16.91,16.91,0,0,0-2.48,1.15c-2.54,1.46-4.19,4.46-4.19,8.17v3.26L250,172.77v4.28l2.82-1.63v10.17Z" style="fill:#fff"></path></g><g id="freepik--social-icon--inject-63"><path d="M325,119.48c0-1.82-1.28-2.56-2.86-1.65l-18.45,10.65a6.32,6.32,0,0,0-2.86,5v21.3c0,1.82,1.28,2.56,2.86,1.65l18.45-10.65a6.32,6.32,0,0,0,2.86-5Z" style="fill:#FF725E"></path><g style="opacity:0.5"><path d="M325,119.48c0-1.82-1.28-2.56-2.86-1.65l-18.45,10.65a6.32,6.32,0,0,0-2.86,5v21.3c0,1.82,1.28,2.56,2.86,1.65l18.45-10.65a6.32,6.32,0,0,0,2.86-5Z" style="fill:#fff"></path></g><path d="M319.32,128.34c0-.09,0-.09-.07-.05a3.14,3.14,0,0,1-.5.23,2.39,2.39,0,0,1-2.89-2.06,6.74,6.74,0,0,1-.08-.79c0-.11,0-.11-.08-.06l-.06,0L313.35,127c-.16.08-.13,0-.13.25V140.5a4.32,4.32,0,0,1,0,.5,5.44,5.44,0,0,1-1,2.57,3.15,3.15,0,0,1-1.56,1.26,1.84,1.84,0,0,1-.51.07l0,0-.17-.07c-.71-.25-1.05-1-.94-2.15a5.15,5.15,0,0,1,1.42-3.16,2.7,2.7,0,0,1,.76-.59,1.71,1.71,0,0,1,.5-.19c.05,0,.08-.05.09-.14v-.08c0-.79,0-2.52,0-2.52,0-.23,0-.46,0-.69,0-.06,0-.06-.07,0a5.66,5.66,0,0,0-.93.5,7.61,7.61,0,0,0-1.24,1.08,10.75,10.75,0,0,0-1.7,2.4,12.5,12.5,0,0,0-1,2.47,9.8,9.8,0,0,0-.4,2.38,7.85,7.85,0,0,0,0,1,7.15,7.15,0,0,0,.2,1.2,3.1,3.1,0,0,0,1.59,2.13.54.54,0,0,0,.24.09h0l.11.07a1.3,1.3,0,0,0,.39.09,4,4,0,0,0,2.69-.92,10.06,10.06,0,0,0,3.05-3.93,11.24,11.24,0,0,0,1.14-4.75v-6.61s0-.12,0-.17.07,0,.1,0a3.57,3.57,0,0,0,2,0,5.64,5.64,0,0,0,1.27-.53c.13-.08.15-.1.15-.28C319.35,130.67,319.32,128.54,319.32,128.34Z" style="fill:#fff"></path></g><path d="M354.74,102.44c0-1.83-1.28-2.57-2.86-1.66l-18.45,10.65a6.35,6.35,0,0,0-2.86,5v21.3c0,1.83,1.28,2.57,2.86,1.65l18.45-10.65a6.32,6.32,0,0,0,2.86-5Z" style="fill:#FF725E"></path><path d="M354.74,102.44c0-1.83-1.28-2.57-2.86-1.66l-18.45,10.65a6.35,6.35,0,0,0-2.86,5v21.3c0,1.83,1.28,2.57,2.86,1.65l18.45-10.65a6.32,6.32,0,0,0,2.86-5Z" style="fill:#fff;opacity:0.5"></path><path d="M350,110.88c-.18-.78-.7-1.17-1.36-1-1.2.26-6,3-6,3a58.11,58.11,0,0,0-6,3.9,4.89,4.89,0,0,0-1.36,2.59,39.33,39.33,0,0,0-.32,5.12,31.88,31.88,0,0,0,.32,4.74c.18.78.7,1.18,1.36,1,1.2-.26,6-3,6-3a57.74,57.74,0,0,0,6-3.89,4.92,4.92,0,0,0,1.36-2.6,39.12,39.12,0,0,0,.32-5.11A32,32,0,0,0,350,110.88ZM341.12,124v-6.14l4,.77Z" style="fill:#fff"></path></g></g><g id="freepik--plant-2--inject-63"><g id="freepik--Plants--inject-63"><path d="M454.11,390.59s-6-21.32-.1-44.3c3.29-12.84,10.86-19.38,15.79-20.41,5.53-1.15,11.7,3.59,7.54,12.25-3.95,8.23-12.75,12.27-16.11,33.07a88.07,88.07,0,0,0-1.11,19.38,1.77,1.77,0,0,1-2.55,1.71Z" style="fill:#FF725E"></path><path d="M454.11,390.59s-6-21.32-.1-44.3c3.29-12.84,10.86-19.38,15.79-20.41,5.53-1.15,11.7,3.59,7.54,12.25-3.95,8.23-12.75,12.27-16.11,33.07a88.07,88.07,0,0,0-1.11,19.38,1.77,1.77,0,0,1-2.55,1.71Z" style="fill:#fff;opacity:0.5"></path><path d="M457.1,385.5a.37.37,0,0,0,.28-.42c-4.83-24.57,5.09-46.47,13.69-54.18a.36.36,0,0,0,0-.5.35.35,0,0,0-.49,0c-8.72,7.82-18.79,30-13.91,54.84A.36.36,0,0,0,457.1,385.5Z" style="fill:#fff"></path><path d="M458.13,392.55a1.77,1.77,0,0,0,2.55-1.31c.81-5.07,3.47-10.45,8.77-16.35,6.17-6.86,14.92-13.43,13-18.83s-9.14-3.56-14-.06-15.39,16.1-11.2,36.11Z" style="fill:#FF725E"></path><path d="M458.13,392.55a1.77,1.77,0,0,0,2.55-1.31c.81-5.07,3.47-10.45,8.77-16.35,6.17-6.86,14.92-13.43,13-18.83s-9.14-3.56-14-.06-15.39,16.1-11.2,36.11Z" style="fill:#fff;opacity:0.65"></path><path d="M458.64,392.91a.34.34,0,0,0,.28-.35c-1.76-15.13,9.5-33.05,18.29-36.91a.35.35,0,0,0,.17-.47.36.36,0,0,0-.46-.17c-8.79,3.06-21.16,22.43-18.7,37.56a.38.38,0,0,0,.36.35Z" style="fill:#fff"></path></g></g><g id="freepik--plant-1--inject-63"><g id="freepik--Plant--inject-63"><g id="freepik--Pot--inject-63"><path d="M64.83,432.78c-8-8.29-12.76-29.25-4.92-35.83h39.9c7.84,6.58,3.12,27.53-4.91,35.83l-.22.23-.28.27c-.23.22-.47.44-.72.65l-.2.16c-.19.15-.39.31-.6.46s-.69.47-1,.67c-6.62,3.86-17.34,3.86-24,0h0a11,11,0,0,1-1-.68c-.2-.14-.38-.28-.56-.43l-.24-.19a8.47,8.47,0,0,1-.7-.63L65,433Z" style="fill:#37474f"></path><path d="M96.35,394.3c9.1,5.31,9.1,13.93,0,19.25s-23.87,5.31-33,0-9.1-13.94,0-19.25S87.24,389,96.35,394.3Z" style="fill:#455a64"></path><path d="M92,396.85c6.68,3.91,6.68,10.24,0,14.14s-17.53,3.9-24.21,0-6.69-10.23,0-14.14S85.28,393,92,396.85Z" style="fill:#263238"></path><path d="M67.76,403.56c6.68-3.9,17.52-3.9,24.21,0a11.16,11.16,0,0,1,4,3.72A11.23,11.23,0,0,1,92,411c-6.69,3.9-17.53,3.9-24.21,0a11.27,11.27,0,0,1-4-3.71A11.2,11.2,0,0,1,67.76,403.56Z" style="fill:#fff"></path></g><path d="M74.4,365.21c-2.69,3.4-10.78,4.9-14.81-3.44-3.79-7.81-7.79-15.19-9-18.08a3.05,3.05,0,0,1,1.65-4.08s-.1-4.44,7.63-2,13.37,6.58,17.21,13.7S79.35,363.84,74.4,365.21Z" style="fill:#FF725E"></path><g style="opacity:0.5"><path d="M74.4,365.21c-2.69,3.4-10.78,4.9-14.81-3.44-3.79-7.81-7.79-15.19-9-18.08a3.05,3.05,0,0,1,1.65-4.08s-.1-4.44,7.63-2,13.37,6.58,17.21,13.7S79.35,363.84,74.4,365.21Z" style="fill:#fff"></path></g><path d="M78.52,376.32a39.4,39.4,0,0,0-1-4.43,63.11,63.11,0,0,0-3.14-8.46A64.37,64.37,0,0,0,64.46,348,55.79,55.79,0,0,0,57,340.81c-.08-.06-.13.11-.07.17a68.46,68.46,0,0,1,11.83,14,68.73,68.73,0,0,1,7.47,16.3c.49,1.6,1,3.21,1.39,4.84s.74,3.33,1.15,5c0,.17.31.25.3,0A31.87,31.87,0,0,0,78.52,376.32Z" style="fill:#FF725E"></path><path d="M78.52,376.32a39.4,39.4,0,0,0-1-4.43,63.11,63.11,0,0,0-3.14-8.46A64.37,64.37,0,0,0,64.46,348,55.79,55.79,0,0,0,57,340.81c-.08-.06-.13.11-.07.17a68.46,68.46,0,0,1,11.83,14,68.73,68.73,0,0,1,7.47,16.3c.49,1.6,1,3.21,1.39,4.84s.74,3.33,1.15,5c0,.17.31.25.3,0A31.87,31.87,0,0,0,78.52,376.32Z" style="opacity:0.30000000000000004"></path><path d="M83.17,359.24c-7,2.17-12.23-3.31-10.43-11.91S83.58,329.2,87,331.76c2.12-2.13,6.82-1.36,9,5.62S96.21,362.28,83.17,359.24Z" style="fill:#FF725E"></path><g style="opacity:0.30000000000000004"><path d="M83.17,359.24c-7,2.17-12.23-3.31-10.43-11.91S83.58,329.2,87,331.76c2.12-2.13,6.82-1.36,9,5.62S96.21,362.28,83.17,359.24Z" style="fill:#fff"></path></g><path d="M87.29,337a94.07,94.07,0,0,0-4.66,15.44,149.85,149.85,0,0,0-2.71,16.17c-1.26,10.5-1.48,9.92-1.41,20.48q0,4.4.11,8.77c.06,3,0,6,.27,9,.1,1.15,1.73.84,1.76-.21.1-5.26-.19-10.55-.24-15.81a34.14,34.14,0,0,1,.09-4.41,219.26,219.26,0,0,1,2.85-31.65c.5-2.91,1.05-5.82,1.73-8.7.72-3,1.59-6,2.39-9C87.5,337,87.36,336.83,87.29,337Z" style="fill:#FF725E"></path><path d="M87.29,337a94.07,94.07,0,0,0-4.66,15.44,149.85,149.85,0,0,0-2.71,16.17c-1.26,10.5-1.48,9.92-1.41,20.48q0,4.4.11,8.77c.06,3,0,6,.27,9,.1,1.15,1.73.84,1.76-.21.1-5.26-.19-10.55-.24-15.81a34.14,34.14,0,0,1,.09-4.41,219.26,219.26,0,0,1,2.85-31.65c.5-2.91,1.05-5.82,1.73-8.7.72-3,1.59-6,2.39-9C87.5,337,87.36,336.83,87.29,337Z" style="opacity:0.30000000000000004"></path><path d="M66.93,382.46C66,387,59.8,390.29,52.6,387.31s-21.38-21.68-14.9-23.74c-.35-3.39,19.25-6.18,28.94,5.77C73.69,378,66.93,382.46,66.93,382.46Z" style="fill:#FF725E"></path><g style="opacity:0.7000000000000001"><path d="M66.93,382.46C66,387,59.8,390.29,52.6,387.31s-21.38-21.68-14.9-23.74c-.35-3.39,19.25-6.18,28.94,5.77C73.69,378,66.93,382.46,66.93,382.46Z" style="fill:#fff"></path></g><path d="M77.21,389.21A32.89,32.89,0,0,0,74.29,386a88.2,88.2,0,0,0-6.61-5.91,89.5,89.5,0,0,0-15.17-9.76,79.39,79.39,0,0,0-9.16-4.16c-.09,0-.06.13,0,.16,2.61,1.24,5.24,2.44,7.77,3.85A88.56,88.56,0,0,1,58.73,375a110.06,110.06,0,0,1,13.4,11c1.18,1.14,2.31,2.33,3.5,3.46s2.58,2.24,3.77,3.46c.17.18.48.1.29-.16C78.85,391.55,78.09,390.35,77.21,389.21Z" style="fill:#FF725E"></path><path d="M77.21,389.21A32.89,32.89,0,0,0,74.29,386a88.2,88.2,0,0,0-6.61-5.91,89.5,89.5,0,0,0-15.17-9.76,79.39,79.39,0,0,0-9.16-4.16c-.09,0-.06.13,0,.16,2.61,1.24,5.24,2.44,7.77,3.85A88.56,88.56,0,0,1,58.73,375a110.06,110.06,0,0,1,13.4,11c1.18,1.14,2.31,2.33,3.5,3.46s2.58,2.24,3.77,3.46c.17.18.48.1.29-.16C78.85,391.55,78.09,390.35,77.21,389.21Z" style="opacity:0.30000000000000004"></path><path d="M106.75,377c-.12-2.56-13-2.42-19.06,2.44s-6.77,9.63-3,11.28c-.66,5.41,7.87,9,15.51,2.21S109.5,377.52,106.75,377Z" style="fill:#FF725E"></path><path d="M106.75,377c-.12-2.56-13-2.42-19.06,2.44s-6.77,9.63-3,11.28c-.66,5.41,7.87,9,15.51,2.21S109.5,377.52,106.75,377Z" style="fill:#fff;opacity:0.30000000000000004"></path><path d="M94,383.75A31.65,31.65,0,0,0,79.8,396.27c-.2.31.29.92.5.58a36.88,36.88,0,0,1,13.75-13S94.1,383.72,94,383.75Z" style="fill:#FF725E"></path><path d="M94,383.75A31.65,31.65,0,0,0,79.8,396.27c-.2.31.29.92.5.58a36.88,36.88,0,0,1,13.75-13S94.1,383.72,94,383.75Z" style="opacity:0.30000000000000004"></path><path d="M85.46,399c-4.36,4.3.46,9.61,7.55,12.24a25.35,25.35,0,0,0,18.33-.85c3.42-1.71,4.12-2.56,4.12-2.56a43.57,43.57,0,0,0-3.61-8.67A18.18,18.18,0,0,0,94,391C84.91,392.12,84.17,395.89,85.46,399Z" style="fill:#FF725E"></path><g style="opacity:0.5"><path d="M85.46,399c-4.36,4.3.46,9.61,7.55,12.24a25.35,25.35,0,0,0,18.33-.85c3.42-1.71,4.12-2.56,4.12-2.56a43.57,43.57,0,0,0-3.61-8.67A18.18,18.18,0,0,0,94,391C84.91,392.12,84.17,395.89,85.46,399Z" style="fill:#fff"></path></g><path d="M103.79,402.24a45.08,45.08,0,0,0-11.1-4.11c-3.8-.74-8.47-.77-11.55,1.94-1.19,1.05-2.77,3.32-1.8,4.93.09.16.57.46.68.14a15.3,15.3,0,0,1,1-3,6.08,6.08,0,0,1,2.37-2.24,14.12,14.12,0,0,1,8-1.36c4.32.41,8.39,2.15,12.37,3.78C103.83,402.35,103.83,402.25,103.79,402.24Z" style="fill:#FF725E"></path><path d="M103.79,402.24a45.08,45.08,0,0,0-11.1-4.11c-3.8-.74-8.47-.77-11.55,1.94-1.19,1.05-2.77,3.32-1.8,4.93.09.16.57.46.68.14a15.3,15.3,0,0,1,1-3,6.08,6.08,0,0,1,2.37-2.24,14.12,14.12,0,0,1,8-1.36c4.32.41,8.39,2.15,12.37,3.78C103.83,402.35,103.83,402.25,103.79,402.24Z" style="opacity:0.30000000000000004"></path><path d="M86.66,372c-1.09,3.84,3.81,7.42,9.9,5.37s12.42-4,17.61-4,8.49-3.48,7.42-5.79-2.33-7.77-15.56-9.33-19.2,3.11-22,6.76S84.46,372.63,86.66,372Z" style="fill:#FF725E"></path><g style="opacity:0.7000000000000001"><path d="M86.66,372c-1.09,3.84,3.81,7.42,9.9,5.37s12.42-4,17.61-4,8.49-3.48,7.42-5.79-2.33-7.77-15.56-9.33-19.2,3.11-22,6.76S84.46,372.63,86.66,372Z" style="fill:#fff"></path></g><path d="M111.25,363.92a16.11,16.11,0,0,0-4.27-.39,26.05,26.05,0,0,0-4.13.34,32.12,32.12,0,0,0-7.77,2.41c-4.65,2.07-9.27,4.76-12.29,9a29.39,29.39,0,0,0-3.89,7.29c-.18.49.78.77,1,.33a53.74,53.74,0,0,1,3.31-6.34,19.46,19.46,0,0,1,5.07-5.28,40.28,40.28,0,0,1,14-6.43,28.14,28.14,0,0,1,4.48-.66,42.12,42.12,0,0,1,4.49.17C111.48,364.32,111.39,364,111.25,363.92Z" style="fill:#FF725E"></path><path d="M111.25,363.92a16.11,16.11,0,0,0-4.27-.39,26.05,26.05,0,0,0-4.13.34,32.12,32.12,0,0,0-7.77,2.41c-4.65,2.07-9.27,4.76-12.29,9a29.39,29.39,0,0,0-3.89,7.29c-.18.49.78.77,1,.33a53.74,53.74,0,0,1,3.31-6.34,19.46,19.46,0,0,1,5.07-5.28,40.28,40.28,0,0,1,14-6.43,28.14,28.14,0,0,1,4.48-.66,42.12,42.12,0,0,1,4.49.17C111.48,364.32,111.39,364,111.25,363.92Z" style="opacity:0.30000000000000004"></path><path d="M75.81,393.61c-1-3.94-6-6.16-12.57-6.65A17.11,17.11,0,0,0,47,395.31c-3.42,5.85-4.84,10.5-2.77,11.27s10.87,2,16.54,2.48,12.75-.51,17.37-4.82S81.22,394.52,75.81,393.61Z" style="fill:#FF725E"></path><path d="M75.81,393.61c-1-3.94-6-6.16-12.57-6.65A17.11,17.11,0,0,0,47,395.31c-3.42,5.85-4.84,10.5-2.77,11.27s10.87,2,16.54,2.48,12.75-.51,17.37-4.82S81.22,394.52,75.81,393.61Z" style="fill:#fff;opacity:0.30000000000000004"></path><path d="M76.06,393.09a17.32,17.32,0,0,0-7.06-.33,31.06,31.06,0,0,0-6.67,1.54,42,42,0,0,0-6.6,3c-1.11.6-2.2,1.25-3.26,1.93a23.45,23.45,0,0,0-2.93,2s0,.16,0,.13c1.07-.48,2.08-1.16,3.1-1.73s2.22-1.23,3.36-1.81A46.47,46.47,0,0,1,62.58,395a31,31,0,0,1,6.93-1.49,43,43,0,0,1,6.62.17C76.59,393.75,76.33,393.18,76.06,393.09Z" style="fill:#FF725E"></path><path d="M76.06,393.09a17.32,17.32,0,0,0-7.06-.33,31.06,31.06,0,0,0-6.67,1.54,42,42,0,0,0-6.6,3c-1.11.6-2.2,1.25-3.26,1.93a23.45,23.45,0,0,0-2.93,2s0,.16,0,.13c1.07-.48,2.08-1.16,3.1-1.73s2.22-1.23,3.36-1.81A46.47,46.47,0,0,1,62.58,395a31,31,0,0,1,6.93-1.49,43,43,0,0,1,6.62.17C76.59,393.75,76.33,393.18,76.06,393.09Z" style="opacity:0.30000000000000004"></path></g></g><g id="freepik--character-1--inject-63"><g id="freepik--character--inject-63"><g id="freepik--bottom--inject-63"><path d="M247.56,421.46,253.37,410l11.71,6.85-14.43,17s-7.15-.67-8.3-4.4S245.59,422.7,247.56,421.46Z" style="fill:#ffa8a7"></path><path d="M239.31,426a6.08,6.08,0,0,0-1.62,1.77c-.47.7-.32,4.09-.77,5.67s-.8,2-1.55,4c-.84,2.19-2.38,4.18-.64,9.8s4.54,8.3,6.89,9.67a6.22,6.22,0,0,0,2.84.69s3.08-1.17,2.61-3S239.31,426,239.31,426Z" style="fill:#263238"></path><path d="M252.85,432.13a6.79,6.79,0,0,1-1.22,1.94,15.21,15.21,0,0,0-2,5.61c-1.82,8.89,1.71,13.41-3.07,16.75-1.39.87-4.26.63-8.64-5-2.23-2.86-3.5-8.75-2.63-11.42s2.06-4.4,2.62-6.45.27-5.87,1.4-7.63a8.31,8.31,0,0,1,2.78-2.39c.85-.52,2.71-1.19,3.57-1.69s1.34-1.05,1.9-.42l-1,1.23c-1.56,2.16-1.12,2.48-1.09,3.63a17.76,17.76,0,0,1-.58,3.66c1.11-1.4,1.57-2.62,2.78-2.41s1.35.16,3.09,1.79S252.93,431.61,252.85,432.13Z" style="fill:#455a64"></path><path d="M237.92,451.46c-2.23-2.86-3.5-8.75-2.63-11.42a24.8,24.8,0,0,1,1-2.58c0,.18-.09.36-.11.52-.06.34-.1.69-.13,1a7.9,7.9,0,0,0,.44,4c.5,1.11,1.66,3.89,3.16,3.95.85,0,1.56-.79,1.89-1.74.13-.4.36-1.48.36-1.48a13.25,13.25,0,0,1,3.89,1.59c2.17,1.43,2.09,1.75,2.09,1.75a5.74,5.74,0,0,0-.07,1.91,4.7,4.7,0,0,0,.81,1.89,2.86,2.86,0,0,0,.55.45,5.78,5.78,0,0,1-2.63,5.06C245.17,457.3,242.3,457.06,237.92,451.46Z" style="fill:#37474f"></path><path d="M249.63,439.68a30.21,30.21,0,0,0-.56,7.11c-.81,2.28-1.53,2.21-1.63,1s1.48-6.08,2.65-10.12C249.91,438.37,249.76,439,249.63,439.68Z" style="fill:#37474f"></path><path d="M244.22,425.43a5,5,0,0,1,.87-3.26l.57-.29c.94-.53,1.34-1.05,1.9-.42l-1,1.23c-1.56,2.16-1.12,2.48-1.09,3.63a17.76,17.76,0,0,1-.58,3.66c-.9,3.86-1.73,5.15-2.16,8.8s.31,6.1-.21,6.3-1.55-.21-1.74-3.13,1.1-7.83,2-10.16S244.4,427,244.22,425.43Z" style="fill:#37474f"></path><path d="M241.66,444a.44.44,0,0,0,.19.1,8.72,8.72,0,0,1,5.83,3.41.36.36,0,0,0,.55-.47,9.36,9.36,0,0,0-6.23-3.65.36.36,0,0,0-.43.28A.36.36,0,0,0,241.66,444Z" style="fill:#ebebeb"></path><path d="M242.12,441a.45.45,0,0,0,.19.11,9.8,9.8,0,0,1,6.14,3.72.36.36,0,0,0,.52.05.37.37,0,0,0,0-.53,10.48,10.48,0,0,0-6.54-4,.36.36,0,0,0-.44.28A.37.37,0,0,0,242.12,441Z" style="fill:#ebebeb"></path><path d="M242.06,437.65a.43.43,0,0,0,.2.11,11.09,11.09,0,0,1,6.86,4.19.41.41,0,0,0,.58,0,.4.4,0,0,0,.05-.58,11.88,11.88,0,0,0-7.3-4.45.42.42,0,0,0-.5.3A.45.45,0,0,0,242.06,437.65Z" style="fill:#ebebeb"></path><path d="M242.55,434.79a.4.4,0,0,0,.19.11,10.77,10.77,0,0,1,6.71,4.09.41.41,0,0,0,.62-.53,11.62,11.62,0,0,0-7.15-4.35.4.4,0,0,0-.48.3A.41.41,0,0,0,242.55,434.79Z" style="fill:#ebebeb"></path><path d="M243.59,432a.49.49,0,0,0,.2.11,10.8,10.8,0,0,1,6.71,4.09.4.4,0,1,0,.62-.52,11.66,11.66,0,0,0-7.15-4.36.41.41,0,0,0-.48.31A.41.41,0,0,0,243.59,432Z" style="fill:#ebebeb"></path><polygon points="250.72 422.38 258.3 428.57 262.58 431.26 257.69 440.51 243.9 433.91 250.72 422.38" style="fill:#ffa8a7"></polygon><path d="M232.6,381.54s30.26-5.11,42.06-5c12,.08,13.16,9.12,10.15,14.66C279,401.77,259,424.26,259,424.26s-6.74-3.09-8.81-8.92l4.58-10.49-14.4,4.61L233,404.52l-.6-3.75Z" style="fill:#FF725E"></path><path d="M232.6,381.54s30.26-5.11,42.06-5c12,.08,13.16,9.12,10.15,14.66C279,401.77,259,424.26,259,424.26s-6.74-3.09-8.81-8.92l4.58-10.49-14.4,4.61L233,404.52l-.6-3.75Z" style="opacity:0.4"></path><path d="M232.6,381.54,187.53,389s-.47,11.43,4,21.67a23.35,23.35,0,0,0,17.86,13.64,133.06,133.06,0,0,0,14.44,1.17,36.18,36.18,0,0,0,7.55,4.44c3.8,1.51,20.43,8.48,20.43,8.48s4.67-4,4.2-12.19l-15.7-16.7c-3.55-4.34-4.8-5.73-6.77-6.71C234.57,389,233.63,387.35,232.6,381.54Z" style="fill:#FF725E"></path><path d="M232.6,381.54,187.53,389s-.47,11.43,4,21.67a23.35,23.35,0,0,0,17.86,13.64,133.06,133.06,0,0,0,14.44,1.17,36.18,36.18,0,0,0,7.55,4.44c3.8,1.51,20.43,8.48,20.43,8.48s4.67-4,4.2-12.19l-15.7-16.7c-3.55-4.34-4.8-5.73-6.77-6.71C234.57,389,233.63,387.35,232.6,381.54Z" style="opacity:0.30000000000000004"></path><g style="opacity:0.30000000000000004"><path d="M257.14,395.91A104.27,104.27,0,0,0,251.06,406l3.68-1.17c4.15-9.88,5-12.76,11.62-17.39C266.36,387.46,261.61,389.25,257.14,395.91Z"></path><path d="M220.34,419.89s2.52,3.65,10.66,7.1c4.57,1.94,18.73,7.48,23,8.49a11.51,11.51,0,0,1-2.2,2.87s-16.62-7-20.42-8.48a21.36,21.36,0,0,1-2.42-1.14c-.35-.18-.69-.37-1-.56-.85-.49-1.62-1-2.27-1.42s-1.15-.8-1.47-1l-.32-.24,0,0C220.29,422.32,220.34,419.89,220.34,419.89Z"></path><path d="M238,406.66c1.6,1.88,2.37,2.8,2.37,2.8l2.3-.76s-4.08-4.45-6.72-6.78a8.31,8.31,0,0,0-1.51-1.19c1.33-3.49,1.28-9.22,1.28-9.22a18.4,18.4,0,0,1-3.48,8.38,15.32,15.32,0,0,0-6.63-.08c-4.62.77-18,3.05-18,3.05s12.83-1.15,19.51-1.41S236.36,404.77,238,406.66Z"></path></g><path d="M280,436.08c3.25,1.28,5.25,2.57,6.75,4.52s2,3.95.53,6.32-4,5.16-7.14,5a16.92,16.92,0,0,1-7.9-2.52Z" style="fill:#263238"></path><path d="M254,438.82c0,1,4,2.91,8.31,4.95,4.56,2.17,5.69,3.59,9.41,5.42,4.26,2.1,5.87,2.22,9.18,1.3s7.37-5.65,4.53-10c-2.31-3.55-5.31-4.52-9.85-5.72A83.19,83.19,0,0,1,265,431.34c-3.29-1.27-6-3.56-6.67-2.77.46.23,3.9,2.35,3.25,2.93-.16.29-.65.2-1.49-.15a1.47,1.47,0,0,0-1.18-.06,2.24,2.24,0,0,0-.85,1,23.43,23.43,0,0,0-1,2.6c-.26.6-.15.25-.39.86a6.65,6.65,0,0,0-.7,2.33c0,.37.31.49.6.68s.7.4,1,.61c.11.09.3.36.24.51s-.7.12-.94,0-.66-.2-1-.32S254.78,439.17,254,438.82Z" style="fill:#455a64"></path><path d="M270.29,448.49c.61.31,4.47,2.1,5.69,1s-1.79-3-1.79-3-.47-2.91,3-7.2c.61.47,3.15.45,3.12-1.05s-4.29-3.33-4.35-3.35c4.35,1.16,7.22,2.17,9.46,5.61,2.84,4.34-1.23,9.07-4.53,10s-4.92.8-9.18-1.3C271.32,449,270.66,448.71,270.29,448.49Z" style="fill:#37474f"></path><path d="M274.61,446.2c1.61.54.5,2-1.86,1.53-3.54-.72-6.47-2.72-10.41-4-4.26-2-8.59-3.92-8.31-5,.76.28,2.39,1,2.39,1,.32.14,1.14.44,1.14.44,3.23,1.4,6.79,3.64,10.28,4.58C270.92,445.59,273,445.66,274.61,446.2Z" style="fill:#37474f"></path><path d="M277,439.84c-1.47-.85-1.73-1.58-4.62-2.91s-7.78-4.17-10.8-5.93a36.72,36.72,0,0,1-3.28-2.43c.5-.57,2.34,0,4.18,1.12s3,1.9,4.8,2.85c3.55,2.14,7.59,3.58,9.62,4.88S278.47,440.69,277,439.84Z" style="fill:#37474f"></path><path d="M277.22,439.45a.38.38,0,0,1-.09.13,13,13,0,0,0-2.76,7.14.43.43,0,0,1-.4.4.36.36,0,0,1-.33-.41,13.58,13.58,0,0,1,3-7.69.33.33,0,0,1,.51,0A.41.41,0,0,1,277.22,439.45Z" style="fill:#f0f0f0"></path><path d="M274.36,437.36a.42.42,0,0,1-.08.12,17.71,17.71,0,0,0-3.41,8.43.43.43,0,0,1-.42.38.35.35,0,0,1-.31-.42,18.19,18.19,0,0,1,3.64-8.93.35.35,0,0,1,.52,0A.41.41,0,0,1,274.36,437.36Z" style="fill:#f0f0f0"></path><path d="M268.06,445.61a.42.42,0,0,1-.34.25.35.35,0,0,1-.36-.38c.17-5.17,3.5-10,3.66-10.19a.33.33,0,0,1,.51,0,.43.43,0,0,1,0,.57s-3.25,4.78-3.4,9.59A.53.53,0,0,1,268.06,445.61Z" style="fill:#f0f0f0"></path><path d="M265.41,443.92a.4.4,0,0,1-.33.25.33.33,0,0,1-.36-.37,15.26,15.26,0,0,1,3.85-9.67.35.35,0,0,1,.52,0,.46.46,0,0,1-.07.58,14.6,14.6,0,0,0-3.57,9A.39.39,0,0,1,265.41,443.92Z" style="fill:#f0f0f0"></path><path d="M262,442.47a.39.39,0,0,1-.32.25.34.34,0,0,1-.37-.37c0-5.37,3.8-9.53,4-9.7a.34.34,0,0,1,.52,0,.42.42,0,0,1-.06.57s-3.68,4.06-3.7,9A.41.41,0,0,1,262,442.47Z" style="fill:#ebebeb"></path></g><g id="freepik--top--inject-63"><g id="freepik--arm--inject-63"><path id="freepik--arm--inject-63" d="M221.87,333.56c7.54,0,10.09,4.43,10.76,8.56.77,4.75,1.54,16.23,1.54,16.23L245,367.11l-6.61,8.79s-8.34-4.32-11.64-6.3c-4-2.41-3.87-4.13-4.3-10.66S221.49,337.3,221.87,333.56Z" style="fill:#ffa8a7"></path></g><path d="M187.11,396.74c-.46-8.92.14-19,1.83-33.14.55-4.52,2.53-23.2,3.72-26.58l9-2.33s7.78-.81,17.4-1.09l2.83,0c.6.63,9.19,7.68,11.86,15.34,1.52,4.36,2,11.71-3.15,15.52,0,0-.76,7.63-.77,7.69s4.69,7.29,5.47,9c-1.18,7.53-10.19,14.19-23,16.85C197,401.14,188.06,397.32,187.11,396.74Z" style="fill:#FF725E"></path><path d="M220.31,368.53s-3.68,4.45-10.89,3.57a13.34,13.34,0,0,1-10.23-6.76s1,7.75,9.9,8.84A10.75,10.75,0,0,0,220.31,368.53Z" style="opacity:0.30000000000000004"></path><g id="freepik--Laptop--inject-63"><path d="M212.67,405.32l.05.85a2.43,2.43,0,0,0,1.34,2L237.9,419.9a2.38,2.38,0,0,0,1.23.24,2.35,2.35,0,0,0,1.18-.4l40.55-27.07a2.41,2.41,0,0,0,1.07-2.17l0-.59L239,418.54Z" style="fill:#ebebeb"></path><path d="M281.89,389.91,256,377.12a1.45,1.45,0,0,0-1.44.09l-41.72,27.86a.32.32,0,0,0,0,.55L239,418.54Z" style="fill:#fafafa"></path><polygon points="238.65 416.43 224.67 409.54 262.59 384.22 276.64 391.07 238.65 416.43" style="fill:#e0e0e0"></polygon><polygon points="230.62 395.24 230.88 395.37 237.73 398.75 249.04 391.2 249.27 391.05 242.16 387.54 230.62 395.24" style="fill:#e0e0e0"></polygon><polygon points="230.88 395.37 237.73 398.75 249.04 391.2 242.18 387.82 230.88 395.37" style="fill:#e6e6e6"></polygon><path d="M239,418.54l.11,1.6a2.35,2.35,0,0,0,1.18-.4l40.55-27.07a2.41,2.41,0,0,0,1.07-2.17l0-.59Z" style="fill:#ebebeb"></path><g style="mix-blend-mode:multiply;opacity:0.5"><path d="M239,418.54l.11,1.6a2.35,2.35,0,0,0,1.18-.4l40.55-27.07a2.41,2.41,0,0,0,1.07-2.17l0-.59Z" style="fill:#e0e0e0"></path></g><path d="M270.36,384.91c-1.32-1.9-2.95-3.59-4.13-5.58a34,34,0,0,0-3.86-3.52c-4-2.93-5-2.87-10-4.56a21.93,21.93,0,0,1-7.36-4.14l-6.61,8.79c.74.43,1.45.87,2.14,1.31,1.12.72,2.56,3.28,5.12,4.29,3.39,1.34,7.41.52,7.78,1.52a6.66,6.66,0,0,0,.23,1.85,6.48,6.48,0,0,0-2-.55c-.63,0-1.54.71-1.36,1.15s.57.61,1,1,1.35,1.13,1.5,1.22a6.09,6.09,0,0,0,3.18.56,1.41,1.41,0,0,0,1.06-.9,5.06,5.06,0,0,0,.73.27,1.9,1.9,0,0,0,1.39-.06,1.15,1.15,0,0,0,.46-.66,5.61,5.61,0,0,0,1.68-.31c.76-.41.79-1.35.94-2.09a9.2,9.2,0,0,0,.14-2.82c2.26,1.43,4,4,6.75,4.58C270.14,386.39,271.42,386,270.36,384.91Z" style="fill:#ffa8a7"></path><g id="freepik--arm--inject-63"><path d="M178.19,376.14c1.18-11,2.32-21,4.05-29,.95-4.45,4.06-9.2,10.42-10.1,6.15,3.8,4.44,16.63,3.81,19.76l-3.41,19.38s3.84,3,9.46,6.54c4.74,3,7.86,5.48,13.25,5.76s7.54,0,10.41,1c1.53.55,5,1.82,6.21,2.33s3.4,2.46,5.41,3.75-.3,2.26-1.73,1.94a18,18,0,0,1-4.34-1.76,23.24,23.24,0,0,0-3.7-1.14,21.31,21.31,0,0,1,1.05,4.16c0,.77.28,1.69-.35,2.3a6,6,0,0,1-1.56.77,1.18,1.18,0,0,1-.27.76,1.92,1.92,0,0,1-1.35.44,5.41,5.41,0,0,1-.79-.06,1.38,1.38,0,0,1-.79,1.16,6.06,6.06,0,0,1-3.27.33c-.17-.05-1.43-.63-1.8-.79a3.28,3.28,0,0,1-1.26-.68c-.29-.38.4-1.36,1-1.5a6.67,6.67,0,0,1,2.1,0,6.87,6.87,0,0,1-.73-1.76c-.63-.87-4.68.33-8.36-.06-2.79-.3-4.95-2.78-6.23-3.26-8.16-3-12.86-4.26-21.19-8.56C176.65,383.89,177.57,381.86,178.19,376.14Z" style="fill:#ffa8a7"></path><path d="M228.76,394.76c-.49-1-1.22-2.21-2-2.44a9.21,9.21,0,0,1,1.3,2.24Z" style="fill:#f28f8f"></path><path d="M227.17,401.79a9.16,9.16,0,0,0-.08-2.28,20.75,20.75,0,0,0-.44-2.22,9.91,9.91,0,0,0-.76-2.16,4.23,4.23,0,0,0-1.48-1.73,3.45,3.45,0,0,1,.68.88,7,7,0,0,1,.49,1,15.26,15.26,0,0,1,.64,2.12c.19.73.36,1.46.54,2.18A20.66,20.66,0,0,1,227.17,401.79Z" style="fill:#f28f8f"></path><path d="M224.76,402.93a10.41,10.41,0,0,0-.14-2.23,20.17,20.17,0,0,0-.48-2.18,15.55,15.55,0,0,0-.75-2.11,4.27,4.27,0,0,0-1.27-1.83,2.63,2.63,0,0,1,.57.93c.14.33.27.68.39,1,.23.7.44,1.4.64,2.11C224.12,400.05,224.49,401.47,224.76,402.93Z" style="fill:#f28f8f"></path><path d="M218.66,401.45a4,4,0,0,1,.93.07c.3.05.52.19.9.28l-.17-.23a1,1,0,0,0,.09.44,1.37,1.37,0,0,0,.89.7,3.13,3.13,0,0,1-.41-.55,1.19,1.19,0,0,1-.12-.29.76.76,0,0,1,0-.25v-.17l-.18-.06a2.77,2.77,0,0,0-.88-.13A2,2,0,0,0,218.66,401.45Z" style="fill:#f28f8f"></path></g><path d="M239.72,418.85a2.85,2.85,0,0,0,2.45-.35l40.38-27a2.87,2.87,0,0,0,1.26-2.08l2.8-27.7a2.44,2.44,0,0,0,0-.47,2.84,2.84,0,0,0-1-2l-42,28a2.15,2.15,0,0,0-.93,1.54Z" style="fill:#FF725E"></path><g style="opacity:0.7000000000000001"><path d="M239.72,418.85a2.85,2.85,0,0,0,2.45-.35l40.38-27a2.87,2.87,0,0,0,1.26-2.08l2.8-27.7a2.44,2.44,0,0,0,0-.47,2.84,2.84,0,0,0-1-2l-42,28a2.15,2.15,0,0,0-.93,1.54Z" style="fill:#fff"></path></g><path d="M239,418.54l.3.15a2.78,2.78,0,0,0,.4.16l3-30a2.15,2.15,0,0,1,.93-1.54l42-28a3,3,0,0,0-.61-.41L243,387a2.07,2.07,0,0,0-.93,1.54Z" style="fill:#fafafa"></path><path d="M261.71,392c.18-1.85,1.92-4.41,3.87-5.71s3.38-.86,3.19,1A9.28,9.28,0,0,1,264.9,393C263,394.32,261.52,393.88,261.71,392Z" style="fill:#FF725E"></path></g><path d="M197.34,302.17c-.05.21-1.26.83-1.48,1a6.92,6.92,0,0,0-1.14,1.28,9.41,9.41,0,0,0-1.31,3.44,61.69,61.69,0,0,0-.57,6.22,40.36,40.36,0,0,1-1.21,5.94,20.55,20.55,0,0,0-.84,5.26,6.89,6.89,0,0,0,1.86,4.86,11.57,11.57,0,0,1,.14-5.33,10.62,10.62,0,0,0,.59,3.27,7.74,7.74,0,0,0,3.54,3.74,20,20,0,0,0,5,1.71,35.8,35.8,0,0,0,8.49,1,51.91,51.91,0,0,0,5.28-.3,15.12,15.12,0,0,0,6.51-1.86,6.38,6.38,0,0,0,3.24-5.63,6.55,6.55,0,0,1,.82,3.65,7.18,7.18,0,0,0,1.85-5,12.64,12.64,0,0,0-1.36-5.27,23.79,23.79,0,0,1-1.45-3.17,4.42,4.42,0,0,1-.06-3.1c.32-.64.84-1.22,1.18-1.88a11.72,11.72,0,0,0,1.46-5.81c-.2-4.17-2.53-9.66-10.09-11.54C211.44,293.12,199.24,294,197.34,302.17Z" style="fill:#263238"></path><g id="freepik--head--inject-63"><g id="freepik--head--inject-63"><g id="freepik--head--inject-63"><path d="M200.26,323.67a4.8,4.8,0,0,1-4.21-1.78c-2.15-2.53-2.25-5-1.13-6.62.92-1.32,3.08-2.09,4.53-1.11s1.57,1.85,2.13,3,2.13.34,1.81-4.14c3.15-1.29,2.87-6.41,4.63-8.41,2.76-3.14,7-2.11,8.4-1.28a5.69,5.69,0,0,1,5.89-.12c2,1.18,3.32,3.54,3.71,11.48s-1.24,13.4-3.21,15a9.33,9.33,0,0,1-6.69,1.52l-.12,3s8,8.9-2.63,7.67a16.8,16.8,0,0,1-11.76-7.23l.46-12.22S201.86,323.44,200.26,323.67Z" style="fill:#ffa8a7"></path><path d="M217.78,323a2.37,2.37,0,0,1-2.87,1.71,2.33,2.33,0,0,1-1.75-2.82Z" style="fill:#b16668"></path><path d="M213.12,322.64a2.34,2.34,0,0,0,1.79,2.06,2.36,2.36,0,1,0-1.79-2.06Z" style="fill:#f28f8f"></path><path d="M224,309.52l-3-1.13a1.57,1.57,0,0,1,2-1A1.66,1.66,0,0,1,224,309.52Z" style="fill:#263238"></path><path d="M212.66,308.14l-3.12,1.49a1.62,1.62,0,0,1,.74-2.26A1.83,1.83,0,0,1,212.66,308.14Z" style="fill:#263238"></path><path d="M227.79,310.52l-.61-.07a18.44,18.44,0,0,0-6,.19c-1.91.56-2.58,1.18-3.65,1.19s-1.88-.63-4-1.19a21.49,21.49,0,0,0-6.47-.18l-.64.07a1,1,0,0,0-.7,1,2.37,2.37,0,0,0,.65,1.19,1.44,1.44,0,0,1,.22.48,21.4,21.4,0,0,0,.87,3.29,4.54,4.54,0,0,0,.86,1.18,3.65,3.65,0,0,0,.43.35l.25.15a3.76,3.76,0,0,0,.73.33l.12,0,.2.05.2.05a6.12,6.12,0,0,0,.64.1l.28,0h.34c2.66,0,3.74-1.2,4.36-2.45s.42-3,1.65-3h.11l.11,0c.91.2.84,1.81,1.44,3a4.75,4.75,0,0,0,.9,1.27,2,2,0,0,0,.21.2l.11.09.12.09.1.07.12.08.09.05.07,0a4,4,0,0,0,1.06.4l.1,0a6.32,6.32,0,0,0,1.3.12,3.61,3.61,0,0,0,3.69-2.28,20.28,20.28,0,0,0,.68-3.29,1,1,0,0,1,.21-.43,2.07,2.07,0,0,0,.53-1.21A1,1,0,0,0,227.79,310.52Zm-12.62,4.65a3.54,3.54,0,0,1-.88,1.74h0a3.74,3.74,0,0,1-2.87,1,3.36,3.36,0,0,1-2.81-1.27.94.94,0,0,1-.09-.12l-.09-.12-.07-.12-.06-.1,0-.09a.25.25,0,0,1,0-.07l-.06-.13h0a2.75,2.75,0,0,1-.15-.36h0c0-.08,0-.15-.08-.22s-.07-.25-.09-.35l0-.07,0-.06c-.23-.87-.51-2.58-.06-3a5.33,5.33,0,0,1,3.62-.6l.21,0a6.91,6.91,0,0,1,.91.15l.35.08c.31.08.61.17.89.27l.27.11.29.13.06,0,.11.06a1.7,1.7,0,0,1,.6.45A3.75,3.75,0,0,1,215.17,315.17Zm11.51-.37a3.56,3.56,0,0,1-1.79,2.78,3.48,3.48,0,0,1-1.47.31,3.36,3.36,0,0,1-3-1.3h0l-.06-.08-.06-.1,0,0-.08-.13-.08-.16a.59.59,0,0,0,0-.08l0-.05,0-.06a.08.08,0,0,0,0-.05,4.64,4.64,0,0,1-.2-.65,4,4,0,0,1,0-2.63,5.43,5.43,0,0,1,3.21-1.29,7.28,7.28,0,0,1,.9-.06h.8l.25,0,.46.08.11,0h0l.07,0,.11,0,.13,0,.22.08,0,0a1.81,1.81,0,0,1,.49.29C227.06,312.21,226.86,313.93,226.68,314.8Z" style="fill:#37474f"></path><path d="M221.6,319.09,217,320.81l-.72-5.72c.2-.84.4-1.71,1.15-1.74Z" style="fill:#f28f8f"></path><path d="M206.54,311.19l-7.09,3a6.2,6.2,0,0,1,1,.89l6.16-2.43Z" style="fill:#37474f"></path></g></g><path d="M216.12,331.22c-4.16-.33-9.67-2-11.05-4.73.71,2.88,3.57,4.48,5.88,5.22A24.64,24.64,0,0,0,216,332.8Z" style="fill:#f28f8f"></path></g></g><circle cx="212.66" cy="314.95" r="1.23" style="fill:#263238"></circle><circle cx="222.83" cy="314.95" r="1.23" style="fill:#263238"></circle></g></g></svg>